<svg width="180" height="40" viewBox="0 0 180 40" fill="none" xmlns="http://www.w3.org/2000/svg">
<rect width="180" height="40" fill="#151515"/>
<path d="M29.1096 23.1582V15.8022H26.2296V14.7582H33.1776V15.8022H30.2976V23.1582H29.1096ZM35.5766 18.3822H39.8966V19.4022H35.5766V18.3822ZM35.6846 22.1142H40.5806V23.1582H34.4846V14.7582H40.4126V15.8022H35.6846V22.1142ZM41.2517 23.1582L45.0557 14.7582H46.2437L50.0597 23.1582H48.7997L45.4037 15.4302H45.8837L42.4877 23.1582H41.2517ZM42.8717 21.0582L43.1957 20.0982H47.9237L48.2717 21.0582H42.8717ZM51.3127 23.1582V14.7582H52.2967L56.0647 21.1062H55.5367L59.2567 14.7582H60.2407L60.2527 23.1582H59.1007L59.0887 16.5702H59.3647L56.0527 22.1382H55.5007L52.1647 16.5702H52.4647V23.1582H51.3127ZM65.9963 23.1582V14.7582H69.2723C70.0083 14.7582 70.6363 14.8742 71.1563 15.1062C71.6763 15.3382 72.0763 15.6742 72.3563 16.1142C72.6363 16.5542 72.7763 17.0782 72.7763 17.6862C72.7763 18.2942 72.6363 18.8182 72.3563 19.2582C72.0763 19.6902 71.6763 20.0262 71.1563 20.2662C70.6363 20.4982 70.0083 20.6142 69.2723 20.6142H66.6563L67.1963 20.0502V23.1582H65.9963ZM67.1963 20.1702L66.6563 19.5702H69.2363C70.0043 19.5702 70.5843 19.4062 70.9763 19.0782C71.3763 18.7502 71.5763 18.2862 71.5763 17.6862C71.5763 17.0862 71.3763 16.6222 70.9763 16.2942C70.5843 15.9662 70.0043 15.8022 69.2363 15.8022H66.6563L67.1963 15.2022V20.1702ZM74.2541 23.1582V16.7982H75.3581V18.5262L75.2501 18.0942C75.4261 17.6542 75.7221 17.3182 76.1381 17.0862C76.5541 16.8542 77.0661 16.7382 77.6741 16.7382V17.8542C77.6261 17.8462 77.5781 17.8422 77.5301 17.8422C77.4901 17.8422 77.4501 17.8422 77.4101 17.8422C76.7941 17.8422 76.3061 18.0262 75.9461 18.3942C75.5861 18.7622 75.4061 19.2942 75.4061 19.9902V23.1582H74.2541ZM81.7594 23.2302C81.1194 23.2302 80.5514 23.0902 80.0554 22.8102C79.5594 22.5302 79.1674 22.1462 78.8794 21.6582C78.5914 21.1622 78.4474 20.6022 78.4474 19.9782C78.4474 19.3462 78.5914 18.7862 78.8794 18.2982C79.1674 17.8102 79.5594 17.4302 80.0554 17.1582C80.5514 16.8782 81.1194 16.7382 81.7594 16.7382C82.3914 16.7382 82.9554 16.8782 83.4514 17.1582C83.9554 17.4302 84.3474 17.8102 84.6274 18.2982C84.9154 18.7782 85.0594 19.3382 85.0594 19.9782C85.0594 20.6102 84.9154 21.1702 84.6274 21.6582C84.3474 22.1462 83.9554 22.5302 83.4514 22.8102C82.9554 23.0902 82.3914 23.2302 81.7594 23.2302ZM81.7594 22.2222C82.1674 22.2222 82.5314 22.1302 82.8514 21.9462C83.1794 21.7622 83.4354 21.5022 83.6194 21.1662C83.8034 20.8222 83.8954 20.4262 83.8954 19.9782C83.8954 19.5222 83.8034 19.1302 83.6194 18.8022C83.4354 18.4662 83.1794 18.2062 82.8514 18.0222C82.5314 17.8382 82.1674 17.7462 81.7594 17.7462C81.3514 17.7462 80.9874 17.8382 80.6674 18.0222C80.3474 18.2062 80.0914 18.4662 79.8994 18.8022C79.7074 19.1302 79.6114 19.5222 79.6114 19.9782C79.6114 20.4262 79.7074 20.8222 79.8994 21.1662C80.0914 21.5022 80.3474 21.7622 80.6674 21.9462C80.9874 22.1302 81.3514 22.2222 81.7594 22.2222ZM85.8365 25.5582C85.5725 25.5582 85.3205 25.5262 85.0805 25.4622C84.8325 25.3982 84.6245 25.3022 84.4565 25.1742L84.8285 24.2862C85.0685 24.4862 85.3805 24.5862 85.7645 24.5862C86.0685 24.5862 86.3005 24.4902 86.4605 24.2982C86.6285 24.1142 86.7125 23.8382 86.7125 23.4702V16.7982H87.8645V23.4462C87.8645 24.0942 87.6885 24.6062 87.3365 24.9822C86.9925 25.3662 86.4925 25.5582 85.8365 25.5582ZM87.2885 15.5742C87.0645 15.5742 86.8765 15.5022 86.7245 15.3582C86.5805 15.2142 86.5085 15.0382 86.5085 14.8302C86.5085 14.6142 86.5805 14.4342 86.7245 14.2902C86.8765 14.1462 87.0645 14.0742 87.2885 14.0742C87.5125 14.0742 87.6965 14.1462 87.8405 14.2902C87.9925 14.4262 88.0685 14.5982 88.0685 14.8062C88.0685 15.0222 87.9965 15.2062 87.8525 15.3582C87.7085 15.5022 87.5205 15.5742 87.2885 15.5742ZM92.8947 23.2302C92.2147 23.2302 91.6147 23.0902 91.0947 22.8102C90.5827 22.5302 90.1827 22.1462 89.8947 21.6582C89.6147 21.1702 89.4747 20.6102 89.4747 19.9782C89.4747 19.3462 89.6107 18.7862 89.8827 18.2982C90.1627 17.8102 90.5427 17.4302 91.0227 17.1582C91.5107 16.8782 92.0587 16.7382 92.6667 16.7382C93.2827 16.7382 93.8267 16.8742 94.2987 17.1462C94.7707 17.4182 95.1387 17.8022 95.4027 18.2982C95.6747 18.7862 95.8107 19.3582 95.8107 20.0142C95.8107 20.0622 95.8067 20.1182 95.7987 20.1822C95.7987 20.2462 95.7947 20.3062 95.7867 20.3622H90.3747V19.5342H95.1867L94.7187 19.8222C94.7267 19.4142 94.6427 19.0502 94.4667 18.7302C94.2907 18.4102 94.0467 18.1622 93.7347 17.9862C93.4307 17.8022 93.0747 17.7102 92.6667 17.7102C92.2667 17.7102 91.9107 17.8022 91.5987 17.9862C91.2867 18.1622 91.0427 18.4142 90.8667 18.7422C90.6907 19.0622 90.6027 19.4302 90.6027 19.8462V20.0382C90.6027 20.4622 90.6987 20.8422 90.8907 21.1782C91.0907 21.5062 91.3667 21.7622 91.7187 21.9462C92.0707 22.1302 92.4747 22.2222 92.9307 22.2222C93.3067 22.2222 93.6467 22.1582 93.9507 22.0302C94.2627 21.9022 94.5347 21.7102 94.7667 21.4542L95.4027 22.1982C95.1147 22.5342 94.7547 22.7902 94.3227 22.9662C93.8987 23.1422 93.4227 23.2302 92.8947 23.2302ZM100.182 23.2302C99.5344 23.2302 98.9544 23.0902 98.4424 22.8102C97.9384 22.5302 97.5424 22.1462 97.2544 21.6582C96.9664 21.1702 96.8224 20.6102 96.8224 19.9782C96.8224 19.3462 96.9664 18.7862 97.2544 18.2982C97.5424 17.8102 97.9384 17.4302 98.4424 17.1582C98.9544 16.8782 99.5344 16.7382 100.182 16.7382C100.758 16.7382 101.27 16.8542 101.718 17.0862C102.174 17.3102 102.526 17.6462 102.774 18.0942L101.898 18.6582C101.69 18.3462 101.434 18.1182 101.13 17.9742C100.834 17.8222 100.514 17.7462 100.17 17.7462C99.7544 17.7462 99.3824 17.8382 99.0544 18.0222C98.7264 18.2062 98.4664 18.4662 98.2744 18.8022C98.0824 19.1302 97.9864 19.5222 97.9864 19.9782C97.9864 20.4342 98.0824 20.8302 98.2744 21.1662C98.4664 21.5022 98.7264 21.7622 99.0544 21.9462C99.3824 22.1302 99.7544 22.2222 100.17 22.2222C100.514 22.2222 100.834 22.1502 101.13 22.0062C101.434 21.8542 101.69 21.6222 101.898 21.3102L102.774 21.8622C102.526 22.3022 102.174 22.6422 101.718 22.8822C101.27 23.1142 100.758 23.2302 100.182 23.2302ZM106.532 23.2302C105.892 23.2302 105.396 23.0582 105.044 22.7142C104.692 22.3702 104.516 21.8782 104.516 21.2382V15.4062H105.668V21.1902C105.668 21.5342 105.752 21.7982 105.92 21.9822C106.096 22.1662 106.344 22.2582 106.664 22.2582C107.024 22.2582 107.324 22.1582 107.564 21.9582L107.924 22.7862C107.748 22.9382 107.536 23.0502 107.288 23.1222C107.048 23.1942 106.796 23.2302 106.532 23.2302ZM103.436 17.7462V16.7982H107.492V17.7462H103.436Z" fill="white"/>
<path d="M154.203 20.3853C154.416 20.1725 154.416 19.8275 154.203 19.6147L150.736 16.147C150.523 15.9342 150.178 15.9342 149.965 16.147C149.752 16.3598 149.752 16.7048 149.965 16.9176L153.048 20L149.965 23.0824C149.752 23.2952 149.752 23.6402 149.965 23.853C150.178 24.0658 150.523 24.0658 150.736 23.853L154.203 20.3853ZM132 20.5449L153.818 20.5449L153.818 19.4551L132 19.4551L132 20.5449Z" fill="white"/>
</svg>
