<?xml version="1.0" encoding="UTF-8"?><svg id="Layer_2" xmlns="http://www.w3.org/2000/svg" viewBox="0 0 461.4 611.4"><defs><style>.cls-1{fill:none;stroke:#231f20;}</style></defs><g id="Layer_1-2"><g><path class="cls-1" d="M138.5,51.3c0,31.2-23.4,50.6-60.8,50.6h-28.2v38.6H17.1V.5h60.6c37.4,0,60.8,19.4,60.8,50.8Zm-32.8,0c0-15.4-10-24.4-29.8-24.4h-26.4v48.6h26.4c19.8,0,29.8-9,29.8-24.2Z"/><path class="cls-1" d="M282.5,.5V140.5h-26.6L186.1,55.5v85h-32V.5h26.8l69.6,85V.5h32Z"/><path class="cls-1" d="M307.1,78.9V.5h32.4V77.7c0,26.6,11.6,37.6,31.2,37.6s31.2-11,31.2-37.6V.5h32V78.9c0,41.2-23.6,64-63.4,64s-63.4-22.8-63.4-64Z"/><path class="cls-1" d="M17.1,156.5h63.6c45.8,0,77.2,27.6,77.2,70s-31.4,70-77.2,70H17.1V156.5Zm62,113.4c27.8,0,46-16.6,46-43.4s-18.2-43.4-46-43.4h-29.6v86.8h29.6Z"/><path class="cls-1" d="M201.9,182.9h-44.8v-26.4h122v26.4h-44.8v113.6h-32.4v-113.6Z"/><path class="cls-1" d="M7.3,434.5c0-11.6,8.6-19.2,19.4-19.2s19.4,7.6,19.4,19.2-8.6,19.6-19.4,19.6-19.4-8.2-19.4-19.6Z"/><path class="cls-1" d="M112.9,582.1v26.4H7.1v-21l54-51c12.4-11.8,14.6-19,14.6-25.8,0-11-7.6-17.4-22.4-17.4-12,0-22.2,4.6-29,14L.7,492.1c10.8-15.8,30.4-26,55.6-26,31.2,0,52,16,52,41.4,0,13.6-3.8,26-23.4,44.2l-32.2,30.4h60.2Z"/><path class="cls-1" d="M118.5,538.5c0-46.2,25.6-72.4,60-72.4s60,26.2,60,72.4-25.4,72.4-60,72.4-60-26.2-60-72.4Zm87.4,0c0-31.8-11.2-45-27.4-45s-27.2,13.2-27.2,45,11.2,45,27.2,45,27.4-13.2,27.4-45Z"/><path class="cls-1" d="M350.3,582.1v26.4h-105.8v-21l54-51c12.4-11.8,14.6-19,14.6-25.8,0-11-7.6-17.4-22.4-17.4-12,0-22.2,4.6-29,14l-23.6-15.2c10.8-15.8,30.4-26,55.6-26,31.2,0,52,16,52,41.4,0,13.6-3.8,26-23.4,44.2l-32.2,30.4h60.2Z"/><path class="cls-1" d="M460.9,582.1v26.4h-105.8v-21l54-51c12.4-11.8,14.6-19,14.6-25.8,0-11-7.6-17.4-22.4-17.4-12,0-22.2,4.6-29,14l-23.6-15.2c10.8-15.8,30.4-26,55.6-26,31.2,0,52,16,52,41.4,0,13.6-3.8,26-23.4,44.2l-32.2,30.4h60.2Z"/></g></g></svg>