<?xml version="1.0" encoding="UTF-8"?><svg id="Layer_2" xmlns="http://www.w3.org/2000/svg" viewBox="0 0 722.06 454.6"><defs><style>.cls-1{fill:none;stroke:#231f20;}</style></defs><g id="Layer_1-2"><g><path class="cls-1" d="M19.17,.5H51.57V140.5H19.17V.5Z"/><path class="cls-1" d="M205.77,.5V140.5h-26.6L109.37,55.5v85h-32V.5h26.8l69.6,85V.5h32Z"/><path class="cls-1" d="M260.57,26.9h-44.8V.5h122V26.9h-44.8v113.6h-32.4V26.9Z"/><path class="cls-1" d="M456.16,114.5v26h-108.4V.5h105.8V26.5h-73.6v30.4h65v25.2h-65v32.4h76.2Z"/><path class="cls-1" d="M563.76,140.5l-27-39h-29.8v39h-32.4V.5h60.6c37.4,0,60.8,19.4,60.8,50.8,0,21-10.6,36.4-28.8,44.2l31.4,45h-34.8Zm-30.4-113.6h-26.4v48.8h26.4c19.8,0,29.8-9.2,29.8-24.4s-10-24.4-29.8-24.4Z"/><path class="cls-1" d="M111.37,266.5H46.37l-12.4,30H.77L63.17,156.5h32l62.6,140h-34l-12.4-30Zm-10.2-24.6l-22.2-53.6-22.2,53.6h44.4Z"/><path class="cls-1" d="M154.17,226.5c0-42.2,32.4-72.4,76-72.4,24.2,0,44.4,8.8,57.6,24.8l-20.8,19.2c-9.4-10.8-21.2-16.4-35.2-16.4-26.2,0-44.8,18.4-44.8,44.8s18.6,44.8,44.8,44.8c14,0,25.8-5.6,35.2-16.6l20.8,19.2c-13.2,16.2-33.4,25-57.8,25-43.4,0-75.8-30.2-75.8-72.4Z"/><path class="cls-1" d="M329.77,182.9h-44.8v-26.4h122v26.4h-44.8v113.6h-32.4v-113.6Z"/><path class="cls-1" d="M416.97,156.5h32.4v140h-32.4V156.5Z"/><path class="cls-1" d="M608.96,156.5l-60.6,140h-32l-60.4-140h35l42.6,100,43.2-100h32.2Z"/><path class="cls-1" d="M721.56,270.5v26h-108.4V156.5h105.8v26h-73.6v30.4h65v25.2h-65v32.4h76.2Z"/><path class="cls-1" d="M111.37,422.5H46.37l-12.4,30H.77l62.4-140h32l62.6,140h-34l-12.4-30Zm-10.2-24.6l-22.2-53.6-22.2,53.6h44.4Z"/><path class="cls-1" d="M254.17,452.5l-27-39h-29.8v39h-32.4v-140h60.6c37.4,0,60.8,19.4,60.8,50.8,0,21-10.6,36.4-28.8,44.2l31.4,45h-34.8Zm-30.4-113.6h-26.4v48.8h26.4c19.8,0,29.8-9.2,29.8-24.4s-10-24.4-29.8-24.4Z"/><path class="cls-1" d="M331.57,338.9h-44.8v-26.4h122v26.4h-44.8v113.6h-32.4v-113.6Z"/><path class="cls-1" d="M402.37,434.5c0-11.6,8.6-19.2,19.4-19.2s19.4,7.6,19.4,19.2-8.6,19.6-19.4,19.6-19.4-8.2-19.4-19.6Z"/></g></g></svg>