<svg width="816" height="146" viewBox="0 0 816 146" fill="none" xmlns="http://www.w3.org/2000/svg">
<path d="M94.7344 55.1328L93.7389 55.228L93.8254 56.1328H94.7344V55.1328ZM132.43 55.1328V56.1328H133.524L133.426 55.0433L132.43 55.1328ZM0.59375 73.2969L-0.406257 73.2948L-0.406248 73.299L0.59375 73.2969ZM132.43 93.6094L133.426 93.6937L133.517 92.6206L132.44 92.6094L132.43 93.6094ZM94.7344 93.2188L94.7447 92.2188L93.8854 92.2099L93.7474 93.0581L94.7344 93.2188ZM69.3438 113.531L69.3386 114.531L69.3506 114.531L69.3438 113.531ZM94.7344 56.1328H132.43V54.1328H94.7344V56.1328ZM133.426 55.0433C131.842 37.423 124.578 23.5446 113.183 14.0804C101.799 4.62481 86.3729 -0.359375 68.5625 -0.359375V1.64062C86.0061 1.64062 100.951 6.51972 111.905 15.6189C122.85 24.7093 129.893 38.077 131.434 55.2223L133.426 55.0433ZM68.5625 -0.359375C49.3417 -0.359375 32.1057 6.1169 19.6606 18.6117C7.21234 31.1097 -0.35697 49.5427 -0.406248 73.2948L1.59375 73.299C1.64213 49.9807 9.06305 32.0856 21.0777 20.0231C33.0954 7.95732 49.795 1.64062 68.5625 1.64062V-0.359375ZM-0.406248 73.299C-0.356981 96.9468 7.01297 115.38 19.3641 127.905C31.714 140.429 48.9531 146.953 68.5625 146.953V144.953C49.4024 144.953 32.7059 138.587 20.7882 126.501C8.8718 114.417 1.64214 96.5219 1.59375 73.2948L-0.406248 73.299ZM68.5625 146.953C109.832 146.953 131.334 118.403 133.426 93.6937L131.433 93.525C129.424 117.253 108.738 144.953 68.5625 144.953V146.953ZM132.44 92.6094L94.7447 92.2188L94.724 94.2187L132.419 94.6093L132.44 92.6094ZM93.7474 93.0581C92.7552 99.153 90.1015 103.972 86.0227 107.286C81.939 110.604 76.3396 112.484 69.3369 112.531L69.3506 114.531C76.7034 114.481 82.7739 112.503 87.2839 108.839C91.7989 105.17 94.6628 99.8821 95.7214 93.3794L93.7474 93.0581ZM69.3489 112.531C60.0363 112.484 52.7293 109.172 47.7214 102.725C42.6838 96.2397 39.875 86.456 39.875 73.2969H37.875C37.875 86.7002 40.7302 96.9849 46.1419 103.952C51.5832 110.957 59.5106 114.481 69.3386 114.531L69.3489 112.531ZM39.875 73.2969C39.875 60.7772 42.6087 50.9604 47.644 44.2978C52.65 37.6739 60.008 34.0625 69.5391 34.0625V32.0625C59.4412 32.0625 51.4672 35.9218 46.0484 43.0919C40.6589 50.2232 37.875 60.5236 37.875 73.2969H39.875ZM69.5391 34.0625C76.8603 34.0625 82.5866 36.1982 86.6291 39.8585C90.6725 43.5196 93.1234 48.7891 93.7389 55.228L95.7298 55.0377C95.0758 48.1953 92.4486 42.4296 87.9715 38.3759C83.4935 34.3213 77.2569 32.0625 69.5391 32.0625V34.0625ZM125.422 73.2969L124.422 73.2948V73.299L125.422 73.2969ZM224.055 73.2969L223.055 73.2931L223.055 73.3006L224.055 73.2969ZM193.977 113.531L193.972 114.531L193.982 114.531L193.977 113.531ZM263.336 73.2969C263.336 49.5415 255.716 31.107 243.181 18.6092C230.65 6.11563 213.293 -0.359375 193.977 -0.359375V1.64062C212.844 1.64062 229.666 7.95859 241.769 20.0255C253.868 32.0883 261.336 49.9819 261.336 73.2969H263.336ZM193.977 -0.359375C174.467 -0.359375 157.084 6.1144 144.564 18.6096C132.041 31.1082 124.471 49.5427 124.422 73.2948L126.422 73.299C126.47 49.9808 133.891 32.0871 145.977 20.0252C158.066 7.95982 174.912 1.64062 193.977 1.64062V-0.359375ZM124.422 73.299C124.471 96.906 132.041 115.339 144.563 127.873C157.082 140.404 174.464 146.953 193.977 146.953V144.953C174.915 144.953 158.069 138.563 145.978 126.46C133.89 114.36 126.47 96.4651 126.422 73.2948L124.422 73.299ZM193.977 146.953C213.293 146.953 230.65 140.478 243.181 127.985C255.716 115.487 263.336 97.0523 263.336 73.2969H261.336C261.336 96.6118 253.868 114.505 241.769 126.568C229.666 138.635 212.844 144.953 193.977 144.953V146.953ZM164.703 73.2969C164.703 60.375 167.368 50.5629 172.314 44.0039C177.226 37.4891 184.48 34.0625 193.977 34.0625V32.0625C183.942 32.0625 176.059 35.7159 170.717 42.7998C165.409 49.8394 162.703 60.1445 162.703 73.2969H164.703ZM193.977 34.0625C203.373 34.0625 210.603 37.4872 215.504 44.003C220.438 50.562 223.103 60.3738 223.055 73.2931L225.055 73.3006C225.104 60.1457 222.398 49.8404 217.102 42.8007C211.774 35.7179 203.916 32.0625 193.977 32.0625V34.0625ZM223.055 73.3006C223.103 86.1701 220.438 95.958 215.504 102.518C210.601 109.035 203.37 112.484 193.972 112.531L193.982 114.531C203.92 114.481 211.776 110.801 217.102 103.72C222.398 96.6807 225.104 86.4002 225.055 73.2931L223.055 73.3006ZM193.982 112.531C184.483 112.484 177.228 109.033 172.314 102.517C167.368 95.957 164.703 86.1689 164.703 73.2969H162.703C162.703 86.4014 165.409 96.6816 170.717 103.721C176.057 110.803 183.939 114.481 193.972 114.531L193.982 112.531ZM378.18 2.59375H379.18V1.59375H378.18V2.59375ZM341.07 2.59375V1.59375H340.07V2.59375H341.07ZM341.07 78.5703V79.5703H342.07V78.5703H341.07ZM339.898 78.5703L339.072 79.1333L339.37 79.5703H339.898V78.5703ZM288.141 2.59375L288.967 2.03074L288.669 1.59375H288.141V2.59375ZM256.5 2.59375V1.59375H255.5V2.59375H256.5ZM256.5 144H255.5V145H256.5V144ZM293.609 144V145H294.609V144H293.609ZM293.609 67.6328V66.6328H292.609V67.6328H293.609ZM294.586 67.6328L295.41 67.066L295.112 66.6328H294.586V67.6328ZM347.125 144L346.301 144.567L346.599 145H347.125V144ZM378.18 144V145H379.18V144H378.18ZM378.18 1.59375H341.07V3.59375H378.18V1.59375ZM340.07 2.59375V78.5703H342.07V2.59375H340.07ZM341.07 77.5703H339.898V79.5703H341.07V77.5703ZM340.725 78.0073L288.967 2.03074L287.314 3.15676L339.072 79.1333L340.725 78.0073ZM288.141 1.59375H256.5V3.59375H288.141V1.59375ZM255.5 2.59375V144H257.5V2.59375H255.5ZM256.5 145H293.609V143H256.5V145ZM294.609 144V67.6328H292.609V144H294.609ZM293.609 68.6328H294.586V66.6328H293.609V68.6328ZM293.762 68.1996L346.301 144.567L347.949 143.433L295.41 67.066L293.762 68.1996ZM347.125 145H378.18V143H347.125V145ZM379.18 144V2.59375H377.18V144H379.18ZM466.484 55.1328L465.489 55.228L465.575 56.1328H466.484V55.1328ZM504.18 55.1328V56.1328H505.274L505.176 55.0433L504.18 55.1328ZM372.344 73.2969L371.344 73.2948V73.299L372.344 73.2969ZM504.18 93.6094L505.176 93.6937L505.267 92.6206L504.19 92.6094L504.18 93.6094ZM466.484 93.2188L466.495 92.2188L465.635 92.2099L465.497 93.0581L466.484 93.2188ZM441.094 113.531L441.089 114.531L441.101 114.531L441.094 113.531ZM466.484 56.1328H504.18V54.1328H466.484V56.1328ZM505.176 55.0433C503.592 37.423 496.328 23.5446 484.933 14.0804C473.549 4.62481 458.123 -0.359375 440.312 -0.359375V1.64062C457.756 1.64062 472.701 6.51972 483.655 15.6189C494.6 24.7093 501.643 38.077 503.184 55.2223L505.176 55.0433ZM440.312 -0.359375C421.092 -0.359375 403.856 6.1169 391.411 18.6117C378.962 31.1097 371.393 49.5427 371.344 73.2948L373.344 73.299C373.392 49.9807 380.813 32.0856 392.828 20.0231C404.845 7.95732 421.545 1.64062 440.312 1.64062V-0.359375ZM371.344 73.299C371.393 96.9468 378.763 115.38 391.114 127.905C403.464 140.429 420.703 146.953 440.312 146.953V144.953C421.152 144.953 404.456 138.587 392.538 126.501C380.622 114.417 373.392 96.5219 373.344 73.2948L371.344 73.299ZM440.312 146.953C481.582 146.953 503.084 118.403 505.176 93.6937L503.183 93.525C501.174 117.253 480.488 144.953 440.312 144.953V146.953ZM504.19 92.6094L466.495 92.2188L466.474 94.2187L504.169 94.6093L504.19 92.6094ZM465.497 93.0581C464.505 99.153 461.852 103.972 457.773 107.286C453.689 110.604 448.09 112.484 441.087 112.531L441.101 114.531C448.453 114.481 454.524 112.503 459.034 108.839C463.549 105.17 466.413 99.8821 467.471 93.3794L465.497 93.0581ZM441.099 112.531C431.786 112.484 424.479 109.172 419.471 102.725C414.434 96.2397 411.625 86.456 411.625 73.2969H409.625C409.625 86.7002 412.48 96.9849 417.892 103.952C423.333 110.957 431.261 114.481 441.089 114.531L441.099 112.531ZM411.625 73.2969C411.625 60.7772 414.359 50.9604 419.394 44.2978C424.4 37.6739 431.758 34.0625 441.289 34.0625V32.0625C431.191 32.0625 423.217 35.9218 417.798 43.0919C412.409 50.2232 409.625 60.5236 409.625 73.2969H411.625ZM441.289 34.0625C448.61 34.0625 454.337 36.1982 458.379 39.8585C462.423 43.5196 464.873 48.7891 465.489 55.228L467.48 55.0377C466.826 48.1953 464.199 42.4296 459.721 38.3759C455.243 34.3213 449.007 32.0625 441.289 32.0625V34.0625ZM498.148 144H497.148V145H498.148V144ZM598.93 144V145H599.93V144H598.93ZM598.93 113.922H599.93V112.922H598.93V113.922ZM535.258 113.922H534.258V114.922H535.258V113.922ZM535.258 88.3359V87.3359H534.258V88.3359H535.258ZM593.852 88.3359V89.3359H594.852V88.3359H593.852ZM593.852 58.2578H594.852V57.2578H593.852V58.2578ZM535.258 58.2578H534.258V59.2578H535.258V58.2578ZM535.258 32.6719V31.6719H534.258V32.6719H535.258ZM599.125 32.6719V33.6719H600.125V32.6719H599.125ZM599.125 2.59375H600.125V1.59375H599.125V2.59375ZM498.148 2.59375V1.59375H497.148V2.59375H498.148ZM498.148 145H598.93V143H498.148V145ZM599.93 144V113.922H597.93V144H599.93ZM598.93 112.922H535.258V114.922H598.93V112.922ZM536.258 113.922V88.3359H534.258V113.922H536.258ZM535.258 89.3359H593.852V87.3359H535.258V89.3359ZM594.852 88.3359V58.2578H592.852V88.3359H594.852ZM593.852 57.2578H535.258V59.2578H593.852V57.2578ZM536.258 58.2578V32.6719H534.258V58.2578H536.258ZM535.258 33.6719H599.125V31.6719H535.258V33.6719ZM600.125 32.6719V2.59375H598.125V32.6719H600.125ZM599.125 1.59375H498.148V3.59375H599.125V1.59375ZM497.148 2.59375V144H499.148V2.59375H497.148ZM594.656 144H593.656V145H594.656V144ZM631.766 144V145H632.766V144H631.766ZM631.766 101.422V100.422H630.766V101.422H631.766ZM653.641 101.422L653.644 100.422H653.641V101.422ZM594.656 2.59375V1.59375H593.656V2.59375H594.656ZM631.766 72.5156H630.766V73.5156H631.766V72.5156ZM631.766 32.2812V31.2812H630.766V32.2812H631.766ZM646.219 32.2812L646.226 31.2812H646.219V32.2812ZM668.289 52.2031L667.289 52.1952L667.289 52.2031L667.289 52.211L668.289 52.2031ZM646.219 72.5156V73.5156L646.226 73.5156L646.219 72.5156ZM594.656 145H631.766V143H594.656V145ZM632.766 144V101.422H630.766V144H632.766ZM631.766 102.422H653.641V100.422H631.766V102.422ZM653.638 102.422C669.946 102.471 683.584 97.676 693.157 88.9403C702.74 80.1959 708.156 67.5862 708.156 52.2031H706.156C706.156 67.0935 700.928 79.142 691.809 87.463C682.681 95.7928 669.562 100.47 653.644 100.422L653.638 102.422ZM708.156 52.2031C708.156 37.0701 702.891 24.3941 693.539 15.5042C684.191 6.61864 670.843 1.59375 654.812 1.59375V3.59375C670.423 3.59375 683.247 8.48097 692.161 16.9538C701.07 25.4223 706.156 37.551 706.156 52.2031H708.156ZM654.812 1.59375H594.656V3.59375H654.812V1.59375ZM593.656 2.59375V144H595.656V2.59375H593.656ZM632.766 72.5156V32.2812H630.766V72.5156H632.766ZM631.766 33.2812H646.219V31.2812H631.766V33.2812ZM646.212 33.2812C653.024 33.3289 658.303 35.185 661.856 38.4055C665.394 41.6129 667.336 46.2776 667.289 52.1952L669.289 52.2111C669.34 45.824 667.229 40.5766 663.199 36.9236C659.183 33.2838 653.378 31.3313 646.226 31.2813L646.212 33.2812ZM667.289 52.211C667.336 58.181 665.391 62.9478 661.847 66.241C658.291 69.544 653.014 71.4681 646.212 71.5156L646.226 73.5156C653.388 73.4655 659.195 71.4345 663.208 67.7063C667.232 63.9682 669.34 58.6276 669.289 52.1953L667.289 52.211ZM646.219 71.5156H631.766V73.5156H646.219V71.5156ZM693.703 32.6719H692.703V33.6719H693.703V32.6719ZM736.281 32.6719H737.281V31.6719H736.281V32.6719ZM736.281 144H735.281V145H736.281V144ZM773 144V145H774V144H773ZM773 32.6719V31.6719H772V32.6719H773ZM815.578 32.6719V33.6719H816.578V32.6719H815.578ZM815.578 2.59375H816.578V1.59375H815.578V2.59375ZM693.703 2.59375V1.59375H692.703V2.59375H693.703ZM693.703 33.6719H736.281V31.6719H693.703V33.6719ZM735.281 32.6719V144H737.281V32.6719H735.281ZM736.281 145H773V143H736.281V145ZM774 144V32.6719H772V144H774ZM773 33.6719H815.578V31.6719H773V33.6719ZM816.578 32.6719V2.59375H814.578V32.6719H816.578ZM815.578 1.59375H693.703V3.59375H815.578V1.59375ZM692.703 2.59375V32.6719H694.703V2.59375H692.703Z" fill="black"/>
</svg>
