<svg width="417" height="743" viewBox="0 0 417 743" fill="none" xmlns="http://www.w3.org/2000/svg">
<path d="M17.9281 140H16.9281V141H17.9281V140ZM17.9281 -9.53674e-06V-1.00001H16.9281V-9.53674e-06H17.9281ZM110.928 6.19999L110.513 7.10997L110.524 7.11491L110.928 6.19999ZM131.928 23.6L131.089 24.1445L131.928 23.6ZM131.928 77.8L131.089 77.2555L131.928 77.8ZM110.928 95.4L111.332 96.315L111.343 96.3099L110.928 95.4ZM35.9281 101.4L35.2162 100.698L33.5373 102.4H35.9281V101.4ZM50.3281 86.8H51.3281V84.362L49.6162 86.0978L50.3281 86.8ZM50.3281 140V141H51.3281V140H50.3281ZM50.3281 90.4L49.5977 91.083L51.3281 92.9336V90.4H50.3281ZM35.9281 75V74H33.624L35.1977 75.683L35.9281 75ZM35.9281 26.4L35.1977 25.717L33.624 27.4H35.9281V26.4ZM50.3281 11H51.3281V8.4664L49.5977 10.317L50.3281 11ZM18.9281 140V-9.53674e-06H16.9281V140H18.9281ZM17.9281 0.999992H78.5281V-1.00001H17.9281V0.999992ZM78.5281 0.999992C90.9541 0.999992 101.606 3.04917 110.513 7.1099L111.343 5.29008C102.117 1.08415 91.1688 -1.00001 78.5281 -1.00001V0.999992ZM110.524 7.11491C119.431 11.044 126.272 16.7229 131.089 24.1445L132.767 23.0555C127.718 15.2771 120.559 9.35594 111.332 5.28508L110.524 7.11491ZM131.089 24.1445C135.901 31.5574 138.328 40.4278 138.328 50.8H140.328C140.328 40.1055 137.822 30.8426 132.767 23.0555L131.089 24.1445ZM138.328 50.8C138.328 61.036 135.903 69.8406 131.089 77.2555L132.767 78.3445C137.82 70.5594 140.328 61.3639 140.328 50.8H138.328ZM131.089 77.2555C126.27 84.6801 119.425 90.4276 110.513 94.4901L111.343 96.3099C120.565 92.1058 127.72 86.1199 132.767 78.3445L131.089 77.2555ZM110.524 94.4851C101.614 98.4162 90.958 100.4 78.5281 100.4V102.4C91.1649 102.4 102.109 100.384 111.332 96.3149L110.524 94.4851ZM78.5281 100.4H35.9281V102.4H78.5281V100.4ZM36.6401 102.102L51.0401 87.5022L49.6162 86.0978L35.2162 100.698L36.6401 102.102ZM49.3281 86.8V140H51.3281V86.8H49.3281ZM50.3281 139H17.9281V141H50.3281V139ZM51.0586 89.717L36.6586 74.317L35.1977 75.683L49.5977 91.083L51.0586 89.717ZM35.9281 76H76.7281V74H35.9281V76ZM76.7281 76C86.8455 76 94.592 73.8453 99.7823 69.3564L98.474 67.8436C93.7976 71.8881 86.6108 74 76.7281 74V76ZM99.7823 69.3564C104.972 64.8676 107.528 58.6373 107.528 50.8H105.528C105.528 58.1627 103.15 63.7991 98.474 67.8436L99.7823 69.3564ZM107.528 50.8C107.528 42.8356 104.976 36.5359 99.7823 32.0436L98.474 33.5564C103.146 37.5974 105.528 43.2977 105.528 50.8H107.528ZM99.7823 32.0436C94.592 27.5547 86.8455 25.4 76.7281 25.4V27.4C86.6108 27.4 93.7976 29.5119 98.474 33.5564L99.7823 32.0436ZM76.7281 25.4H35.9281V27.4H76.7281V25.4ZM36.6586 27.083L51.0586 11.683L49.5977 10.317L35.1977 25.717L36.6586 27.083ZM49.3281 11V90.4H51.3281V11H49.3281ZM138.459 140H137.459V141H138.459V140ZM138.459 -9.53674e-06V-1.00001H137.459V-9.53674e-06H138.459ZM165.259 -9.53674e-06L166.033 -0.633833L165.733 -1.00001H165.259V-9.53674e-06ZM247.859 100.8V101.8H249.972L248.633 100.166L247.859 100.8ZM234.859 100.8H233.859V101.8H234.859V100.8ZM234.859 -9.53674e-06V-1.00001H233.859V-9.53674e-06H234.859ZM266.859 -9.53674e-06H267.859V-1.00001H266.859V-9.53674e-06ZM266.859 140V141H267.859V140H266.859ZM240.259 140L239.487 140.635L239.787 141H240.259V140ZM157.459 39.2V38.2H155.344L156.687 39.8347L157.459 39.2ZM170.459 39.2H171.459V38.2H170.459V39.2ZM170.459 140V141H171.459V140H170.459ZM139.459 140V-9.53674e-06H137.459V140H139.459ZM138.459 0.999992H165.259V-1.00001H138.459V0.999992ZM164.486 0.633812L247.086 101.434L248.633 100.166L166.033 -0.633833L164.486 0.633812ZM247.859 99.8H234.859V101.8H247.859V99.8ZM235.859 100.8V-9.53674e-06H233.859V100.8H235.859ZM234.859 0.999992H266.859V-1.00001H234.859V0.999992ZM265.859 -9.53674e-06V140H267.859V-9.53674e-06H265.859ZM266.859 139H240.259V141H266.859V139ZM241.032 139.365L158.232 38.5653L156.687 39.8347L239.487 140.635L241.032 139.365ZM157.459 40.2H170.459V38.2H157.459V40.2ZM169.459 39.2V140H171.459V39.2H169.459ZM170.459 139H138.459V141H170.459V139ZM291.583 125.8L292.286 125.089L291.583 125.8ZM274.783 -9.53674e-06V-1.00001H273.783V-9.53674e-06H274.783ZM307.183 -9.53674e-06H308.183V-1.00001H307.183V-9.53674e-06ZM315.383 106L314.651 106.682L315.383 106ZM361.383 106L362.114 106.682L361.383 106ZM369.583 -9.53674e-06V-1.00001H368.583V-9.53674e-06H369.583ZM401.583 -9.53674e-06H402.583V-1.00001H401.583V-9.53674e-06ZM384.783 125.8L385.486 126.511L384.783 125.8ZM338.183 141.4C318.507 141.4 303.253 135.925 292.286 125.089L290.88 126.511C302.313 137.808 318.125 143.4 338.183 143.4V141.4ZM292.286 125.089C281.329 114.262 275.783 98.7508 275.783 78.4H273.783C273.783 99.1158 279.437 115.205 290.88 126.511L292.286 125.089ZM275.783 78.4V-9.53674e-06H273.783V78.4H275.783ZM274.783 0.999992H307.183V-1.00001H274.783V0.999992ZM306.183 -9.53674e-06V77.2H308.183V-9.53674e-06H306.183ZM306.183 77.2C306.183 90.6292 308.929 100.54 314.651 106.682L316.114 105.318C310.904 99.7263 308.183 90.4374 308.183 77.2H306.183ZM314.651 106.682C320.349 112.797 328.307 115.8 338.383 115.8V113.8C328.725 113.8 321.35 110.937 316.114 105.318L314.651 106.682ZM338.383 115.8C348.458 115.8 356.416 112.797 362.114 106.682L360.651 105.318C355.416 110.937 348.041 113.8 338.383 113.8V115.8ZM362.114 106.682C367.837 100.54 370.583 90.6292 370.583 77.2H368.583C368.583 90.4374 365.862 99.7263 360.651 105.318L362.114 106.682ZM370.583 77.2V-9.53674e-06H368.583V77.2H370.583ZM369.583 0.999992H401.583V-1.00001H369.583V0.999992ZM400.583 -9.53674e-06V78.4H402.583V-9.53674e-06H400.583ZM400.583 78.4C400.583 98.7508 395.037 114.262 384.08 125.089L385.486 126.511C396.929 115.205 402.583 99.1158 402.583 78.4H400.583ZM384.08 125.089C373.113 135.925 357.859 141.4 338.183 141.4V143.4C358.24 143.4 374.053 137.808 385.486 126.511L384.08 125.089ZM170.686 340H169.686V341H170.686V340ZM170.686 200V199H169.686V200H170.686ZM274.486 208.8L274.035 209.692L274.043 209.696L274.486 208.8ZM301.686 233L300.839 233.532L301.686 233ZM301.686 307L302.533 307.532L302.536 307.527L301.686 307ZM274.486 331.4L274.929 332.297L274.937 332.292L274.486 331.4ZM203.086 313.4H202.086V314.4H203.086V313.4ZM256.886 308.2L257.34 309.091L257.347 309.087L256.886 308.2ZM272.886 293L272.025 292.491L272.021 292.497L272.018 292.504L272.886 293ZM272.886 247L272.018 247.496L272.024 247.507L272.03 247.517L272.886 247ZM256.886 232L256.418 232.884L256.428 232.889L256.439 232.894L256.886 232ZM203.086 226.6V225.6H202.086V226.6H203.086ZM171.686 340V200H169.686V340H171.686ZM170.686 201H234.286V199H170.686V201ZM234.286 201C249.356 201 262.596 203.908 274.035 209.692L274.937 207.908C263.175 201.959 249.616 199 234.286 199V201ZM274.043 209.696C285.486 215.353 294.409 223.297 300.839 233.532L302.533 232.468C295.896 221.903 286.685 213.714 274.929 207.904L274.043 209.696ZM300.839 233.532C307.257 243.748 310.486 255.891 310.486 270H312.486C312.486 255.576 309.181 243.052 302.533 232.468L300.839 233.532ZM310.486 270C310.486 283.974 307.258 296.119 300.836 306.473L302.536 307.527C309.18 296.814 312.486 284.293 312.486 270H310.486ZM300.839 306.468C294.408 316.705 285.482 324.718 274.035 330.508L274.937 332.292C286.69 326.349 295.897 318.095 302.533 307.532L300.839 306.468ZM274.043 330.504C262.603 336.158 249.359 339 234.286 339V341C249.613 341 263.169 338.109 274.929 332.296L274.043 330.504ZM234.286 339H170.686V341H234.286V339ZM203.086 314.4H232.686V312.4H203.086V314.4ZM232.686 314.4C242.143 314.4 250.372 312.644 257.34 309.091L256.432 307.309C249.8 310.69 241.896 312.4 232.686 312.4V314.4ZM257.347 309.087C264.444 305.402 269.922 300.203 273.754 293.496L272.018 292.504C268.384 298.864 263.195 303.798 256.425 307.312L257.347 309.087ZM273.747 293.509C277.718 286.799 279.686 278.95 279.686 270H277.686C277.686 278.65 275.787 286.135 272.025 292.491L273.747 293.509ZM279.686 270C279.686 260.92 277.72 253.067 273.742 246.483L272.03 247.517C275.786 253.733 277.686 261.213 277.686 270H279.686ZM273.754 246.504C269.92 239.794 264.437 234.658 257.333 231.106L256.439 232.894C263.201 236.276 268.385 241.14 272.018 247.496L273.754 246.504ZM257.354 231.116C250.382 227.425 242.148 225.6 232.686 225.6V227.6C241.891 227.6 249.79 229.375 256.418 232.884L257.354 231.116ZM232.686 225.6H203.086V227.6H232.686V225.6ZM202.086 226.6V313.4H204.086V226.6H202.086ZM338.967 340H337.967V341H338.967V340ZM338.967 226.4H339.967V225.4H338.967V226.4ZM294.167 226.4H293.167V227.4H294.167V226.4ZM294.167 200V199H293.167V200H294.167ZM416.167 200H417.167V199H416.167V200ZM416.167 226.4V227.4H417.167V226.4H416.167ZM371.367 226.4V225.4H370.367V226.4H371.367ZM371.367 340V341H372.367V340H371.367ZM339.967 340V226.4H337.967V340H339.967ZM338.967 225.4H294.167V227.4H338.967V225.4ZM295.167 226.4V200H293.167V226.4H295.167ZM294.167 201H416.167V199H294.167V201ZM415.167 200V226.4H417.167V200H415.167ZM416.167 225.4H371.367V227.4H416.167V225.4ZM370.367 226.4V340H372.367V226.4H370.367ZM371.367 339H338.967V341H371.367V339ZM377.056 536.2L376.349 536.907L376.362 536.92L376.375 536.932L377.056 536.2ZM377.056 508.2L377.737 508.933L377.738 508.932L377.056 508.2ZM404.656 508.2L403.962 508.92L403.969 508.926L403.976 508.933L404.656 508.2ZM404.656 536.2L405.35 536.92L405.357 536.914L405.363 536.907L404.656 536.2ZM390.856 540.6C385.773 540.6 381.417 538.894 377.738 535.468L376.375 536.932C380.429 540.706 385.273 542.6 390.856 542.6V540.6ZM377.763 535.493C374.235 531.964 372.456 527.493 372.456 522H370.456C370.456 527.973 372.411 532.969 376.349 536.907L377.763 535.493ZM372.456 522C372.456 516.506 374.234 512.186 377.737 508.933L376.376 507.467C372.412 511.148 370.456 516.027 370.456 522H372.456ZM377.738 508.932C381.417 505.506 385.773 503.8 390.856 503.8V501.8C385.273 501.8 380.429 503.694 376.375 507.468L377.738 508.932ZM390.856 503.8C396.079 503.8 400.426 505.51 403.962 508.92L405.35 507.48C401.42 503.69 396.566 501.8 390.856 501.8V503.8ZM403.976 508.933C407.479 512.186 409.256 516.506 409.256 522H411.256C411.256 516.027 409.3 511.148 405.337 507.467L403.976 508.933ZM409.256 522C409.256 527.493 407.478 531.964 403.949 535.493L405.363 536.907C409.301 532.969 411.256 527.973 411.256 522H409.256ZM403.962 535.48C400.426 538.89 396.079 540.6 390.856 540.6V542.6C396.566 542.6 401.42 540.71 405.35 536.92L403.962 535.48ZM6.73281 740H5.73281V741H6.73281V740ZM6.73281 719L6.04619 718.273L5.73281 718.569V719H6.73281ZM60.7328 668L60.0613 667.259L60.0537 667.266L60.0462 667.273L60.7328 668ZM70.1328 657.6L70.9704 658.146L70.1328 657.6ZM74.1328 649.2L73.1792 648.899L73.1719 648.922L73.1657 648.945L74.1328 649.2ZM69.5328 629.4L68.8981 630.173L68.913 630.185L68.9284 630.197L69.5328 629.4ZM36.5328 628.2L36.1244 627.287L36.1153 627.291L36.5328 628.2ZM23.9328 638.8L23.3913 639.641L24.1884 640.154L24.7435 639.385L23.9328 638.8ZM0.332813 623.6L-0.499238 623.045L-1.06278 623.891L-0.208665 624.441L0.332813 623.6ZM22.7328 604.6L22.2956 603.701H22.2956L22.7328 604.6ZM83.1328 602.8L82.7238 603.713L82.7332 603.717L82.7427 603.721L83.1328 602.8ZM101.333 617L100.512 617.571L100.516 617.577L100.52 617.583L101.333 617ZM106.133 652.6L105.166 652.344L105.163 652.354L105.161 652.364L106.133 652.6ZM99.3328 666.6L98.5146 666.025L98.5094 666.033L98.5042 666.04L99.3328 666.6ZM84.5328 683.2L83.8484 682.471L83.8471 682.472L84.5328 683.2ZM39.7328 725.4L38.8476 725.865L39.46 727.031L40.4185 726.128L39.7328 725.4ZM33.5328 713.6V712.6H31.8778L32.6476 714.065L33.5328 713.6ZM112.533 713.6H113.533V712.6H112.533V713.6ZM112.533 740V741H113.533V740H112.533ZM7.73281 740V719H5.73281V740H7.73281ZM7.41944 719.727L61.4194 668.727L60.0462 667.273L6.04619 718.273L7.41944 719.727ZM61.4043 668.741C65.7027 664.846 68.9049 661.313 70.9704 658.146L69.2952 657.054C67.3607 660.02 64.2963 663.421 60.0613 667.259L61.4043 668.741ZM70.9704 658.146C73.0075 655.023 74.3975 652.123 75.0999 649.454L73.1657 648.945C72.5348 651.343 71.2581 654.044 69.2952 657.054L70.9704 658.146ZM75.0864 649.501C75.91 646.893 76.3328 644.457 76.3328 642.2H74.3328C74.3328 644.21 73.9557 646.44 73.1792 648.899L75.0864 649.501ZM76.3328 642.2C76.3328 636.342 74.2936 631.756 70.1372 628.603L68.9284 630.197C72.5053 632.91 74.3328 636.858 74.3328 642.2H76.3328ZM70.1675 628.627C66.1832 625.354 60.383 623.8 52.9328 623.8V625.8C60.1493 625.8 65.4158 627.312 68.8981 630.173L70.1675 628.627ZM52.9328 623.8C46.9336 623.8 41.3268 624.96 36.1244 627.287L36.9412 629.113C41.8721 626.907 47.1987 625.8 52.9328 625.8V623.8ZM36.1153 627.291C31.0113 629.636 26.6804 633.288 23.1221 638.214L24.7435 639.385C28.1186 634.712 32.1877 631.297 36.9503 629.109L36.1153 627.291ZM24.4743 637.959L0.87429 622.759L-0.208665 624.441L23.3913 639.641L24.4743 637.959ZM1.16486 624.155C6.38898 616.319 13.7119 610.097 23.17 605.499L22.2956 603.701C12.5538 608.436 4.94331 614.881 -0.499238 623.045L1.16486 624.155ZM23.17 605.499C32.612 600.909 43.5247 598.6 55.9328 598.6V596.6C43.2742 596.6 32.0536 598.957 22.2956 603.701L23.17 605.499ZM55.9328 598.6C66.2231 598.6 75.1448 600.315 82.7238 603.713L83.5419 601.887C75.6541 598.352 66.4426 596.6 55.9328 596.6V598.6ZM82.7427 603.721C90.4612 606.991 96.3678 611.614 100.512 617.571L102.154 616.429C97.7645 610.119 91.5378 605.275 83.523 601.879L82.7427 603.721ZM100.52 617.583C104.783 623.525 106.933 630.647 106.933 639H108.933C108.933 630.286 106.683 622.742 102.145 616.417L100.52 617.583ZM106.933 639C106.933 643.444 106.345 647.891 105.166 652.344L107.1 652.856C108.321 648.242 108.933 643.623 108.933 639H106.933ZM105.161 652.364C104.132 656.61 101.932 661.162 98.5146 666.025L100.151 667.175C103.667 662.171 106 657.39 107.105 652.836L105.161 652.364ZM98.5042 666.04C95.2277 670.889 90.3518 676.366 83.8484 682.471L85.2173 683.929C91.7805 677.768 96.7712 672.177 100.161 667.16L98.5042 666.04ZM83.8471 682.472L39.0471 724.672L40.4185 726.128L85.2185 683.928L83.8471 682.472ZM40.6181 724.935L34.4181 713.135L32.6476 714.065L38.8476 725.865L40.6181 724.935ZM33.5328 714.6H112.533V712.6H33.5328V714.6ZM111.533 713.6V740H113.533V713.6H111.533ZM112.533 739H6.73281V741H112.533V739ZM131.102 734L130.567 734.845L130.576 734.851L131.102 734ZM109.702 709.2L108.801 709.634L109.702 709.2ZM109.702 630.8L110.603 631.234L109.702 630.8ZM131.102 606.2L131.627 607.051L131.636 607.045L131.102 606.2ZM192.702 606.2L192.161 607.042L192.169 607.046L192.176 607.051L192.702 606.2ZM214.102 630.8L213.201 631.234L214.102 630.8ZM214.102 709.2L213.201 708.766L214.102 709.2ZM192.702 734L193.233 734.847L193.236 734.845L192.702 734ZM176.102 710.4L175.506 709.597L175.499 709.602L175.493 709.606L176.102 710.4ZM185.702 695.8L184.761 695.461L184.758 695.47L184.755 695.478L185.702 695.8ZM185.702 644.2L184.755 644.522L184.758 644.53L184.761 644.539L185.702 644.2ZM176.102 629.6L175.493 630.394L175.499 630.398L175.506 630.403L176.102 629.6ZM147.702 629.6L147.106 628.797L147.099 628.802L147.093 628.806L147.702 629.6ZM138.102 644.2L137.161 643.861L137.158 643.87L137.155 643.878L138.102 644.2ZM138.102 695.8L137.155 696.122L137.158 696.13L137.161 696.139L138.102 695.8ZM147.702 710.4L147.093 711.194L147.099 711.198L147.106 711.203L147.702 710.4ZM161.902 741.4C150.606 741.4 140.524 738.644 131.627 733.149L130.576 734.851C139.813 740.556 150.264 743.4 161.902 743.4V741.4ZM131.636 733.155C122.746 727.533 115.731 719.418 110.603 708.766L108.801 709.634C114.072 720.582 121.324 729 130.567 734.845L131.636 733.155ZM110.603 708.766C105.483 698.134 102.902 685.224 102.902 670H100.902C100.902 685.443 103.52 698.666 108.801 709.634L110.603 708.766ZM102.902 670C102.902 654.776 105.483 641.866 110.603 631.234L108.801 630.366C103.52 641.334 100.902 654.557 100.902 670H102.902ZM110.603 631.234C115.73 620.584 122.742 612.538 131.627 607.051L130.576 605.349C121.327 611.062 114.073 619.416 108.801 630.366L110.603 631.234ZM131.636 607.045C140.532 601.42 150.61 598.6 161.902 598.6V596.6C150.259 596.6 139.805 599.513 130.567 605.355L131.636 607.045ZM161.902 598.6C173.329 598.6 183.404 601.421 192.161 607.042L193.242 605.358C184.132 599.512 173.675 596.6 161.902 596.6V598.6ZM192.176 607.051C201.061 612.538 208.073 620.584 213.201 631.234L215.003 630.366C209.73 619.416 202.476 611.062 193.227 605.349L192.176 607.051ZM213.201 631.234C218.32 641.866 220.902 654.776 220.902 670H222.902C222.902 654.557 220.283 641.334 215.003 630.366L213.201 631.234ZM220.902 670C220.902 685.224 218.32 698.134 213.201 708.766L215.003 709.634C220.283 698.666 222.902 685.443 222.902 670H220.902ZM213.201 708.766C208.072 719.418 201.057 727.533 192.167 733.155L193.236 734.845C202.479 729 209.731 720.582 215.003 709.634L213.201 708.766ZM192.17 733.153C183.412 738.643 173.333 741.4 161.902 741.4V743.4C173.67 743.4 184.124 740.557 193.233 734.847L192.17 733.153ZM161.902 716C167.568 716 172.52 714.406 176.71 711.194L175.493 709.606C171.683 712.528 167.168 714 161.902 714V716ZM176.697 711.203C181.044 707.978 184.34 702.912 186.648 696.122L184.755 695.478C182.53 702.021 179.426 706.688 175.506 709.597L176.697 711.203ZM186.642 696.139C189.096 689.324 190.302 680.598 190.302 670H188.302C188.302 680.469 187.107 688.942 184.761 695.461L186.642 696.139ZM190.302 670C190.302 659.402 189.096 650.676 186.642 643.861L184.761 644.539C187.107 651.057 188.302 659.531 188.302 670H190.302ZM186.648 643.878C184.34 637.088 181.044 632.022 176.697 628.797L175.506 630.403C179.426 633.312 182.53 637.979 184.755 644.522L186.648 643.878ZM176.71 628.806C172.52 625.594 167.568 624 161.902 624V626C167.168 626 171.683 627.472 175.493 630.394L176.71 628.806ZM161.902 624C156.362 624 151.418 625.597 147.106 628.797L148.297 630.403C152.252 627.469 156.774 626 161.902 626V624ZM147.093 628.806C142.891 632.028 139.6 637.084 137.161 643.861L139.042 644.539C141.403 637.982 144.512 633.305 148.31 630.394L147.093 628.806ZM137.155 643.878C134.84 650.686 133.702 659.406 133.702 670H135.702C135.702 659.527 136.83 651.047 139.048 644.522L137.155 643.878ZM133.702 670C133.702 680.594 134.84 689.314 137.155 696.122L139.048 695.478C136.83 688.953 135.702 680.473 135.702 670H133.702ZM137.161 696.139C139.6 702.916 142.891 707.972 147.093 711.194L148.31 709.606C144.512 706.695 141.403 702.018 139.042 695.461L137.161 696.139ZM147.106 711.203C151.418 714.403 156.362 716 161.902 716V714C156.774 714 152.252 712.531 148.297 709.597L147.106 711.203ZM211.663 740H210.663V741H211.663V740ZM211.663 719L210.976 718.273L210.663 718.569V719H211.663ZM265.663 668L264.991 667.259L264.983 667.266L264.976 667.273L265.663 668ZM275.062 657.6L275.9 658.146L275.062 657.6ZM279.062 649.2L278.109 648.899L278.102 648.922L278.095 648.945L279.062 649.2ZM274.462 629.4L273.828 630.173L273.843 630.185L273.858 630.197L274.462 629.4ZM241.463 628.2L241.054 627.287L241.045 627.291L241.463 628.2ZM228.863 638.8L228.321 639.641L229.118 640.154L229.673 639.385L228.863 638.8ZM205.262 623.6L204.43 623.045L203.867 623.891L204.721 624.441L205.262 623.6ZM227.663 604.6L227.225 603.701L227.663 604.6ZM288.062 602.8L287.653 603.713L287.663 603.717L287.672 603.721L288.062 602.8ZM306.263 617L305.442 617.571L305.446 617.577L305.45 617.583L306.263 617ZM311.062 652.6L310.096 652.344L310.093 652.354L310.091 652.364L311.062 652.6ZM304.263 666.6L303.444 666.025L303.439 666.033L303.434 666.04L304.263 666.6ZM289.462 683.2L288.778 682.471L288.777 682.472L289.462 683.2ZM244.663 725.4L243.777 725.865L244.39 727.031L245.348 726.128L244.663 725.4ZM238.463 713.6V712.6H236.807L237.577 714.065L238.463 713.6ZM317.462 713.6H318.462V712.6H317.462V713.6ZM317.462 740V741H318.462V740H317.462ZM212.663 740V719H210.663V740H212.663ZM212.349 719.727L266.349 668.727L264.976 667.273L210.976 718.273L212.349 719.727ZM266.334 668.741C270.632 664.846 273.835 661.313 275.9 658.146L274.225 657.054C272.29 660.02 269.226 663.421 264.991 667.259L266.334 668.741ZM275.9 658.146C277.937 655.023 279.327 652.123 280.03 649.454L278.095 648.945C277.464 651.343 276.188 654.044 274.225 657.054L275.9 658.146ZM280.016 649.501C280.84 646.893 281.263 644.457 281.263 642.2H279.263C279.263 644.21 278.885 646.44 278.109 648.899L280.016 649.501ZM281.263 642.2C281.263 636.342 279.223 631.756 275.067 628.603L273.858 630.197C277.435 632.91 279.263 636.858 279.263 642.2H281.263ZM275.097 628.627C271.113 625.354 265.313 623.8 257.862 623.8V625.8C265.079 625.8 270.345 627.312 273.828 630.173L275.097 628.627ZM257.862 623.8C251.863 623.8 246.257 624.96 241.054 627.287L241.871 629.113C246.802 626.907 252.128 625.8 257.862 625.8V623.8ZM241.045 627.291C235.941 629.636 231.61 633.288 228.052 638.214L229.673 639.385C233.048 634.712 237.117 631.297 241.88 629.109L241.045 627.291ZM229.404 637.959L205.804 622.759L204.721 624.441L228.321 639.641L229.404 637.959ZM206.095 624.155C211.319 616.319 218.642 610.097 228.1 605.499L227.225 603.701C217.483 608.436 209.873 614.881 204.43 623.045L206.095 624.155ZM228.1 605.499C237.542 600.909 248.454 598.6 260.862 598.6V596.6C248.204 596.6 236.983 598.957 227.225 603.701L228.1 605.499ZM260.862 598.6C271.153 598.6 280.075 600.315 287.653 603.713L288.472 601.887C280.584 598.352 271.372 596.6 260.862 596.6V598.6ZM287.672 603.721C295.391 606.991 301.297 611.614 305.442 617.571L307.083 616.429C302.694 610.119 296.467 605.275 288.453 601.879L287.672 603.721ZM305.45 617.583C309.712 623.525 311.863 630.647 311.863 639H313.863C313.863 630.286 311.613 622.742 307.075 616.417L305.45 617.583ZM311.863 639C311.863 643.444 311.274 647.891 310.096 652.344L312.029 652.856C313.251 648.242 313.863 643.623 313.863 639H311.863ZM310.091 652.364C309.062 656.61 306.861 661.162 303.444 666.025L305.081 667.175C308.597 662.171 310.93 657.39 312.034 652.836L310.091 652.364ZM303.434 666.04C300.157 670.889 295.281 676.366 288.778 682.471L290.147 683.929C296.71 677.768 301.701 672.177 305.091 667.16L303.434 666.04ZM288.777 682.472L243.977 724.672L245.348 726.128L290.148 683.928L288.777 682.472ZM245.548 724.935L239.348 713.135L237.577 714.065L243.777 725.865L245.548 724.935ZM238.463 714.6H317.462V712.6H238.463V714.6ZM316.462 713.6V740H318.462V713.6H316.462ZM317.462 739H211.663V741H317.462V739ZM305.631 740H304.631V741H305.631V740ZM305.631 719L304.945 718.273L304.631 718.569V719H305.631ZM359.631 668L358.96 667.259L358.952 667.266L358.945 667.273L359.631 668ZM369.031 657.6L369.869 658.146L369.031 657.6ZM373.031 649.2L372.078 648.899L372.07 648.922L372.064 648.945L373.031 649.2ZM368.431 629.4L367.797 630.173L367.811 630.185L367.827 630.197L368.431 629.4ZM335.431 628.2L335.023 627.287L335.014 627.291L335.431 628.2ZM322.831 638.8L322.29 639.641L323.087 640.154L323.642 639.385L322.831 638.8ZM299.231 623.6L298.399 623.045L297.836 623.891L298.69 624.441L299.231 623.6ZM321.631 604.6L321.194 603.701L321.631 604.6ZM382.031 602.8L381.622 603.713L381.632 603.717L381.641 603.721L382.031 602.8ZM400.231 617L399.41 617.571L399.414 617.577L399.419 617.583L400.231 617ZM405.031 652.6L404.065 652.344L404.062 652.354L404.059 652.364L405.031 652.6ZM398.231 666.6L397.413 666.025L397.408 666.033L397.403 666.04L398.231 666.6ZM383.431 683.2L382.747 682.471L382.746 682.472L383.431 683.2ZM338.631 725.4L337.746 725.865L338.358 727.031L339.317 726.128L338.631 725.4ZM332.431 713.6V712.6H330.776L331.546 714.065L332.431 713.6ZM411.431 713.6H412.431V712.6H411.431V713.6ZM411.431 740V741H412.431V740H411.431ZM306.631 740V719H304.631V740H306.631ZM306.318 719.727L360.318 668.727L358.945 667.273L304.945 718.273L306.318 719.727ZM360.303 668.741C364.601 664.846 367.803 661.313 369.869 658.146L368.194 657.054C366.259 660.02 363.195 663.421 358.96 667.259L360.303 668.741ZM369.869 658.146C371.906 655.023 373.296 652.123 373.998 649.454L372.064 648.945C371.433 651.343 370.157 654.044 368.194 657.054L369.869 658.146ZM373.985 649.501C374.808 646.893 375.231 644.457 375.231 642.2H373.231C373.231 644.21 372.854 646.44 372.078 648.899L373.985 649.501ZM375.231 642.2C375.231 636.342 373.192 631.756 369.036 628.603L367.827 630.197C371.404 632.91 373.231 636.858 373.231 642.2H375.231ZM369.066 628.627C365.082 625.354 359.281 623.8 351.831 623.8V625.8C359.048 625.8 364.314 627.312 367.797 630.173L369.066 628.627ZM351.831 623.8C345.832 623.8 340.225 624.96 335.023 627.287L335.84 629.113C340.771 626.907 346.097 625.8 351.831 625.8V623.8ZM335.014 627.291C329.91 629.636 325.579 633.288 322.021 638.214L323.642 639.385C327.017 634.712 331.086 631.297 335.849 629.109L335.014 627.291ZM323.373 637.959L299.773 622.759L298.69 624.441L322.29 639.641L323.373 637.959ZM300.063 624.155C305.287 616.319 312.61 610.097 322.068 605.499L321.194 603.701C311.452 608.436 303.842 614.881 298.399 623.045L300.063 624.155ZM322.068 605.499C331.51 600.909 342.423 598.6 354.831 598.6V596.6C342.173 596.6 330.952 598.957 321.194 603.701L322.068 605.499ZM354.831 598.6C365.122 598.6 374.043 600.315 381.622 603.713L382.44 601.887C374.553 598.352 365.341 596.6 354.831 596.6V598.6ZM381.641 603.721C389.36 606.991 395.266 611.614 399.41 617.571L401.052 616.429C396.663 610.119 390.436 605.275 382.421 601.879L381.641 603.721ZM399.419 617.583C403.681 623.525 405.831 630.647 405.831 639H407.831C407.831 630.286 405.581 622.742 401.044 616.417L399.419 617.583ZM405.831 639C405.831 643.444 405.243 647.891 404.065 652.344L405.998 652.856C407.219 648.242 407.831 643.623 407.831 639H405.831ZM404.059 652.364C403.03 656.61 400.83 661.162 397.413 666.025L399.049 667.175C402.566 662.171 404.899 657.39 406.003 652.836L404.059 652.364ZM397.403 666.04C394.126 670.889 389.25 676.366 382.747 682.471L384.116 683.929C390.679 677.768 395.67 672.177 399.06 667.16L397.403 666.04ZM382.746 682.472L337.946 724.672L339.317 726.128L384.117 683.928L382.746 682.472ZM339.517 724.935L333.316 713.135L331.546 714.065L337.746 725.865L339.517 724.935ZM332.431 714.6H411.431V712.6H332.431V714.6ZM410.431 713.6V740H412.431V713.6H410.431ZM411.431 739H305.631V741H411.431V739Z" fill="black"/>
</svg>
