<svg width="449" height="542" viewBox="0 0 449 542" fill="none" xmlns="http://www.w3.org/2000/svg">
<path d="M18.6 140H17.6V141H18.6V140ZM51 140V141H52V140H51ZM51 -9.53674e-06H52V-1.00001H51V-9.53674e-06ZM18.6 -9.53674e-06V-1.00001H17.6V-9.53674e-06H18.6ZM18.6 141H51V139H18.6V141ZM52 140V-9.53674e-06H50V140H52ZM51 -1.00001H18.6V0.99999H51V-1.00001ZM17.6 -9.53674e-06V140H19.6V-9.53674e-06H17.6ZM156.625 -9.53674e-06V-1.00001H155.625V-9.53674e-06H156.625ZM156.625 85L155.851 85.6335L157.625 87.7997V85H156.625ZM87.025 -9.53674e-06L87.7987 -0.633545L87.4986 -1.00001H87.025V-9.53674e-06ZM60.225 -9.53674e-06V-1.00001H59.225V-9.53674e-06H60.225ZM60.225 140H59.225V141H60.225V140ZM92.225 140V141H93.225V140H92.225ZM92.225 55L92.9978 54.3654L91.225 52.2065V55H92.225ZM162.025 140L161.252 140.635L161.552 141H162.025V140ZM188.625 140V141H189.625V140H188.625ZM188.625 -9.53674e-06H189.625V-1.00001H188.625V-9.53674e-06ZM155.625 -9.53674e-06V85H157.625V-9.53674e-06H155.625ZM157.399 84.3665L87.7987 -0.633545L86.2513 0.633526L155.851 85.6335L157.399 84.3665ZM87.025 -1.00001H60.225V0.99999H87.025V-1.00001ZM59.225 -9.53674e-06V140H61.225V-9.53674e-06H59.225ZM60.225 141H92.225V139H60.225V141ZM93.225 140V55H91.225V140H93.225ZM91.4522 55.6346L161.252 140.635L162.798 139.365L92.9978 54.3654L91.4522 55.6346ZM162.025 141H188.625V139H162.025V141ZM189.625 140V-9.53674e-06H187.625V140H189.625ZM188.625 -1.00001H156.625V0.99999H188.625V-1.00001ZM226.748 140H225.748V141H226.748V140ZM259.148 140V141H260.148V140H259.148ZM259.148 26.4V25.4H258.148V26.4H259.148ZM303.948 26.4V27.4H304.948V26.4H303.948ZM303.948 -9.53674e-06H304.948V-1.00001H303.948V-9.53674e-06ZM181.948 -9.53674e-06V-1.00001H180.948V-9.53674e-06H181.948ZM181.948 26.4H180.948V27.4H181.948V26.4ZM226.748 26.4H227.748V25.4H226.748V26.4ZM226.748 141H259.148V139H226.748V141ZM260.148 140V26.4H258.148V140H260.148ZM259.148 27.4H303.948V25.4H259.148V27.4ZM304.948 26.4V-9.53674e-06H302.948V26.4H304.948ZM303.948 -1.00001H181.948V0.99999H303.948V-1.00001ZM180.948 -9.53674e-06V26.4H182.948V-9.53674e-06H180.948ZM181.948 27.4H226.748V25.4H181.948V27.4ZM225.748 26.4V140H227.748V26.4H225.748ZM329.581 114H328.581V115H329.581V114ZM329.581 81.6V80.6H328.581V81.6H329.581ZM394.581 81.6V82.6H395.581V81.6H394.581ZM394.581 56.4H395.581V55.4H394.581V56.4ZM329.581 56.4H328.581V57.4H329.581V56.4ZM329.581 26V25H328.581V26H329.581ZM403.181 26V27H404.181V26H403.181ZM403.181 -9.53674e-06H404.181V-1.00001H403.181V-9.53674e-06ZM297.381 -9.53674e-06V-1.00001H296.381V-9.53674e-06H297.381ZM297.381 140H296.381V141H297.381V140ZM405.781 140V141H406.781V140H405.781ZM405.781 114H406.781V113H405.781V114ZM330.581 114V81.6H328.581V114H330.581ZM329.581 82.6H394.581V80.6H329.581V82.6ZM395.581 81.6V56.4H393.581V81.6H395.581ZM394.581 55.4H329.581V57.4H394.581V55.4ZM330.581 56.4V26H328.581V56.4H330.581ZM329.581 27H403.181V25H329.581V27ZM404.181 26V-9.53674e-06H402.181V26H404.181ZM403.181 -1.00001H297.381V0.99999H403.181V-1.00001ZM296.381 -9.53674e-06V140H298.381V-9.53674e-06H296.381ZM297.381 141H405.781V139H297.381V141ZM406.781 140V114H404.781V140H406.781ZM405.781 113H329.581V115H405.781V113ZM531.561 140V141H533.478L532.381 139.428L531.561 140ZM500.161 95L499.767 94.0809L498.638 94.5648L499.341 95.5722L500.161 95ZM407.561 -9.53674e-06V-1.00001H406.561V-9.53674e-06H407.561ZM407.561 140H406.561V141H407.561V140ZM439.961 140V141H440.961V140H439.961ZM439.961 101V100H438.961V101H439.961ZM469.761 101L470.583 100.431L470.285 100H469.761V101ZM496.761 140L495.939 140.569L496.237 141H496.761V140ZM439.961 75.2H438.961V76.2H439.961V75.2ZM439.961 26.4V25.4H438.961V26.4H439.961ZM532.381 139.428L500.981 94.4278L499.341 95.5722L530.741 140.572L532.381 139.428ZM500.555 95.9191C519.121 87.9623 529.961 72.2019 529.961 50.8H527.961C527.961 71.3981 517.601 86.4377 499.767 94.0809L500.555 95.9191ZM529.961 50.8C529.961 34.8314 524 21.8392 513.226 12.8569C502.474 3.89216 487.024 -1.00001 468.161 -1.00001V0.99999C486.698 0.99999 501.648 5.80783 511.946 14.3931C522.222 22.9608 527.961 35.3686 527.961 50.8H529.961ZM468.161 -1.00001H407.561V0.99999H468.161V-1.00001ZM406.561 -9.53674e-06V140H408.561V-9.53674e-06H406.561ZM407.561 141H439.961V139H407.561V141ZM440.961 140V101H438.961V140H440.961ZM439.961 102H468.161V100H439.961V102ZM468.161 102H469.761V100H468.161V102ZM468.939 101.569L495.939 140.569L497.583 139.431L470.583 100.431L468.939 101.569ZM496.761 141H531.561V139H496.761V141ZM495.161 50.8C495.161 58.1683 492.747 63.963 488.041 67.9359C483.309 71.9307 476.122 74.2 466.361 74.2V76.2C476.4 76.2 484.113 73.8693 489.331 69.4641C494.575 65.037 497.161 58.6317 497.161 50.8H495.161ZM466.361 74.2H439.961V76.2H466.361V74.2ZM440.961 75.2V26.4H438.961V75.2H440.961ZM439.961 27.4H466.361V25.4H439.961V27.4ZM466.361 27.4C476.127 27.4 483.313 29.6215 488.043 33.591C492.745 37.5368 495.161 43.3286 495.161 50.8H497.161C497.161 42.8714 494.577 36.4632 489.329 32.059C484.109 27.6784 476.395 25.4 466.361 25.4V27.4ZM123.2 340L122.276 340.382L122.531 341H123.2V340ZM157.2 340V341H158.743L158.113 339.592L157.2 340ZM94.6 200L95.5129 199.592L95.2483 199H94.6V200ZM62.6 200V199H61.9509L61.6866 199.593L62.6 200ZM0.2 340L-0.713381 339.593L-1.34055 341H0.2V340ZM33.4 340V341H34.0687L34.3242 340.382L33.4 340ZM45.8 310V309H45.1313L44.8758 309.618L45.8 310ZM110.8 310L111.724 309.618L111.469 309H110.8V310ZM56.2 285.4L55.2761 285.017L54.7034 286.4H56.2V285.4ZM78.4 231.8L79.3239 231.417L78.4 229.187L77.4761 231.417L78.4 231.8ZM100.6 285.4V286.4H102.097L101.524 285.017L100.6 285.4ZM123.2 341H157.2V339H123.2V341ZM158.113 339.592L95.5129 199.592L93.6871 200.408L156.287 340.408L158.113 339.592ZM94.6 199H62.6V201H94.6V199ZM61.6866 199.593L-0.713381 339.593L1.11338 340.407L63.5134 200.407L61.6866 199.593ZM0.2 341H33.4V339H0.2V341ZM34.3242 340.382L46.7242 310.382L44.8758 309.618L32.4758 339.618L34.3242 340.382ZM45.8 311H110.8V309H45.8V311ZM109.876 310.382L122.276 340.382L124.124 339.618L111.724 309.618L109.876 310.382ZM57.1239 285.783L79.3239 232.183L77.4761 231.417L55.2761 285.017L57.1239 285.783ZM77.4761 232.183L99.6761 285.783L101.524 285.017L79.3239 231.417L77.4761 232.183ZM100.6 284.4H56.2V286.4H100.6V284.4ZM270.572 317.4L271.347 318.032L271.941 317.303L271.25 316.665L270.572 317.4ZM249.772 298.2L250.45 297.465L249.687 296.76L249.012 297.55L249.772 298.2ZM249.772 241.6L249.018 242.257L249.694 243.033L250.45 242.335L249.772 241.6ZM270.572 222.4L271.25 223.135L271.945 222.493L271.343 221.764L270.572 222.4ZM212.772 343.4C237.42 343.4 257.926 334.503 271.347 318.032L269.797 316.768C256.818 332.697 236.924 341.4 212.772 341.4V343.4ZM271.25 316.665L250.45 297.465L249.094 298.935L269.894 318.135L271.25 316.665ZM249.012 297.55C239.793 308.339 228.266 313.8 214.572 313.8V315.8C228.878 315.8 240.951 310.061 250.532 298.85L249.012 297.55ZM214.572 313.8C201.712 313.8 190.774 309.288 183.053 301.592C175.333 293.896 170.772 282.958 170.772 270H168.772C168.772 283.442 173.511 294.904 181.641 303.008C189.77 311.112 201.232 315.8 214.572 315.8V313.8ZM170.772 270C170.772 257.042 175.333 246.104 183.053 238.408C190.774 230.712 201.712 226.2 214.572 226.2V224.2C201.232 224.2 189.77 228.888 181.641 236.992C173.511 245.096 168.772 256.558 168.772 270H170.772ZM214.572 226.2C228.267 226.2 239.797 231.663 249.018 242.257L250.526 240.943C240.946 229.937 228.876 224.2 214.572 224.2V226.2ZM250.45 242.335L271.25 223.135L269.894 221.665L249.094 240.865L250.45 242.335ZM271.343 221.764C257.924 205.497 237.42 196.6 212.972 196.6V198.6C236.923 198.6 256.82 207.303 269.801 223.036L271.343 221.764ZM212.972 196.6C168.872 196.6 135.972 227.197 135.972 270H137.972C137.972 228.403 169.872 198.6 212.972 198.6V196.6ZM135.972 270C135.972 312.802 168.87 343.4 212.772 343.4V341.4C169.873 341.4 137.972 311.598 137.972 270H135.972ZM296.084 340H295.084V341H296.084V340ZM328.484 340V341H329.484V340H328.484ZM328.484 226.4V225.4H327.484V226.4H328.484ZM373.284 226.4V227.4H374.284V226.4H373.284ZM373.284 200H374.284V199H373.284V200ZM251.284 200V199H250.284V200H251.284ZM251.284 226.4H250.284V227.4H251.284V226.4ZM296.084 226.4H297.084V225.4H296.084V226.4ZM296.084 341H328.484V339H296.084V341ZM329.484 340V226.4H327.484V340H329.484ZM328.484 227.4H373.284V225.4H328.484V227.4ZM374.284 226.4V200H372.284V226.4H374.284ZM373.284 199H251.284V201H373.284V199ZM250.284 200V226.4H252.284V200H250.284ZM251.284 227.4H296.084V225.4H251.284V227.4ZM295.084 226.4V340H297.084V226.4H295.084ZM366.717 340H365.717V341H366.717V340ZM399.117 340V341H400.117V340H399.117ZM399.117 200H400.117V199H399.117V200ZM366.717 200V199H365.717V200H366.717ZM366.717 341H399.117V339H366.717V341ZM400.117 340V200H398.117V340H400.117ZM399.117 199H366.717V201H399.117V199ZM365.717 200V340H367.717V200H365.717ZM509.961 200V199H509.304L509.043 199.603L509.961 200ZM466.761 300L465.841 300.392L466.755 302.536L467.679 300.397L466.761 300ZM424.161 200L425.081 199.608L424.822 199H424.161V200ZM389.161 200V199H387.64L388.243 200.396L389.161 200ZM449.561 340L448.643 340.396L448.903 341H449.561V340ZM481.561 340V341H482.218L482.479 340.397L481.561 340ZM542.161 200L543.079 200.397L543.683 199H542.161V200ZM509.043 199.603L465.843 299.603L467.679 300.397L510.879 200.397L509.043 199.603ZM467.681 299.608L425.081 199.608L423.241 200.392L465.841 300.392L467.681 299.608ZM424.161 199H389.161V201H424.161V199ZM388.243 200.396L448.643 340.396L450.479 339.604L390.079 199.604L388.243 200.396ZM449.561 341H481.561V339H449.561V341ZM482.479 340.397L543.079 200.397L541.243 199.603L480.643 339.603L482.479 340.397ZM542.161 199H509.961V201H542.161V199ZM562.05 314H561.05V315H562.05V314ZM562.05 281.6V280.6H561.05V281.6H562.05ZM627.05 281.6V282.6H628.05V281.6H627.05ZM627.05 256.4H628.05V255.4H627.05V256.4ZM562.05 256.4H561.05V257.4H562.05V256.4ZM562.05 226V225H561.05V226H562.05ZM635.65 226V227H636.65V226H635.65ZM635.65 200H636.65V199H635.65V200ZM529.85 200V199H528.85V200H529.85ZM529.85 340H528.85V341H529.85V340ZM638.25 340V341H639.25V340H638.25ZM638.25 314H639.25V313H638.25V314ZM563.05 314V281.6H561.05V314H563.05ZM562.05 282.6H627.05V280.6H562.05V282.6ZM628.05 281.6V256.4H626.05V281.6H628.05ZM627.05 255.4H562.05V257.4H627.05V255.4ZM563.05 256.4V226H561.05V256.4H563.05ZM562.05 227H635.65V225H562.05V227ZM636.65 226V200H634.65V226H636.65ZM635.65 199H529.85V201H635.65V199ZM528.85 200V340H530.85V200H528.85ZM529.85 341H638.25V339H529.85V341ZM639.25 340V314H637.25V340H639.25ZM638.25 313H562.05V315H638.25V313ZM123.2 540L122.276 540.382L122.531 541H123.2V540ZM157.2 540V541H158.743L158.113 539.592L157.2 540ZM94.6 400L95.5129 399.592L95.2483 399H94.6V400ZM62.6 400V399H61.9509L61.6866 399.593L62.6 400ZM0.2 540L-0.713381 539.593L-1.34055 541H0.2V540ZM33.4 540V541H34.0687L34.3242 540.382L33.4 540ZM45.8 510V509H45.1313L44.8758 509.618L45.8 510ZM110.8 510L111.724 509.618L111.469 509H110.8V510ZM56.2 485.4L55.2761 485.017L54.7034 486.4H56.2V485.4ZM78.4 431.8L79.3239 431.417L78.4 429.187L77.4761 431.417L78.4 431.8ZM100.6 485.4V486.4H102.097L101.524 485.017L100.6 485.4ZM123.2 541H157.2V539H123.2V541ZM158.113 539.592L95.5129 399.592L93.6871 400.408L156.287 540.408L158.113 539.592ZM94.6 399H62.6V401H94.6V399ZM61.6866 399.593L-0.713381 539.593L1.11338 540.407L63.5134 400.407L61.6866 399.593ZM0.2 541H33.4V539H0.2V541ZM34.3242 540.382L46.7242 510.382L44.8758 509.618L32.4758 539.618L34.3242 540.382ZM45.8 511H110.8V509H45.8V511ZM109.876 510.382L122.276 540.382L124.124 539.618L111.724 509.618L109.876 510.382ZM57.1239 485.783L79.3239 432.183L77.4761 431.417L55.2761 485.017L57.1239 485.783ZM77.4761 432.183L99.6761 485.783L101.524 485.017L79.3239 431.417L77.4761 432.183ZM100.6 484.4H56.2V486.4H100.6V484.4ZM271.725 540V541H273.642L272.545 539.428L271.725 540ZM240.325 495L239.931 494.081L238.802 494.565L239.505 495.572L240.325 495ZM147.725 400V399H146.725V400H147.725ZM147.725 540H146.725V541H147.725V540ZM180.125 540V541H181.125V540H180.125ZM180.125 501V500H179.125V501H180.125ZM209.925 501L210.747 500.431L210.449 500H209.925V501ZM236.925 540L236.103 540.569L236.401 541H236.925V540ZM180.125 475.2H179.125V476.2H180.125V475.2ZM180.125 426.4V425.4H179.125V426.4H180.125ZM272.545 539.428L241.145 494.428L239.505 495.572L270.905 540.572L272.545 539.428ZM240.719 495.919C259.285 487.962 270.125 472.202 270.125 450.8H268.125C268.125 471.398 257.765 486.438 239.931 494.081L240.719 495.919ZM270.125 450.8C270.125 434.831 264.164 421.839 253.39 412.857C242.638 403.892 227.188 399 208.325 399V401C226.862 401 241.812 405.808 252.11 414.393C262.386 422.961 268.125 435.369 268.125 450.8H270.125ZM208.325 399H147.725V401H208.325V399ZM146.725 400V540H148.725V400H146.725ZM147.725 541H180.125V539H147.725V541ZM181.125 540V501H179.125V540H181.125ZM180.125 502H208.325V500H180.125V502ZM208.325 502H209.925V500H208.325V502ZM209.103 501.569L236.103 540.569L237.747 539.431L210.747 500.431L209.103 501.569ZM236.925 541H271.725V539H236.925V541ZM235.325 450.8C235.325 458.168 232.911 463.963 228.205 467.936C223.473 471.931 216.286 474.2 206.525 474.2V476.2C216.564 476.2 224.277 473.869 229.495 469.464C234.739 465.037 237.325 458.632 237.325 450.8H235.325ZM206.525 474.2H180.125V476.2H206.525V474.2ZM181.125 475.2V426.4H179.125V475.2H181.125ZM180.125 427.4H206.525V425.4H180.125V427.4ZM206.525 427.4C216.291 427.4 223.477 429.622 228.207 433.591C232.909 437.537 235.325 443.329 235.325 450.8H237.325C237.325 442.871 234.741 436.463 229.493 432.059C224.273 427.678 216.559 425.4 206.525 425.4V427.4ZM297.842 540H296.842V541H297.842V540ZM330.242 540V541H331.242V540H330.242ZM330.242 426.4V425.4H329.242V426.4H330.242ZM375.042 426.4V427.4H376.042V426.4H375.042ZM375.042 400H376.042V399H375.042V400ZM253.042 400V399H252.042V400H253.042ZM253.042 426.4H252.042V427.4H253.042V426.4ZM297.842 426.4H298.842V425.4H297.842V426.4ZM297.842 541H330.242V539H297.842V541ZM331.242 540V426.4H329.242V540H331.242ZM330.242 427.4H375.042V425.4H330.242V427.4ZM376.042 426.4V400H374.042V426.4H376.042ZM375.042 399H253.042V401H375.042V399ZM252.042 400V426.4H254.042V400H252.042ZM253.042 427.4H297.842V425.4H253.042V427.4ZM296.842 426.4V540H298.842V426.4H296.842ZM371.434 542.6C382.78 542.6 391.834 533.959 391.834 522H389.834C389.834 532.841 381.689 540.6 371.434 540.6V542.6ZM391.834 522C391.834 509.807 382.745 501.8 371.434 501.8V503.8C381.724 503.8 389.834 510.993 389.834 522H391.834ZM371.434 501.8C360.124 501.8 351.034 509.807 351.034 522H353.034C353.034 510.993 361.145 503.8 371.434 503.8V501.8ZM351.034 522C351.034 533.959 360.089 542.6 371.434 542.6V540.6C361.18 540.6 353.034 532.841 353.034 522H351.034Z" fill="black"/>
</svg>
