<svg width="318" height="78" viewBox="0 0 318 78" fill="none" xmlns="http://www.w3.org/2000/svg">
<path d="M16.312 69.3174V29.8194H1.232V28.7174H32.552V29.8194H17.472V69.3174H16.312ZM34.3994 48.1474H57.0774V49.2494H34.3994V48.1474ZM34.6894 68.2154H60.5574V69.3174H33.5294V28.7174H59.6874V29.8194H34.6894V68.2154ZM58.1196 69.3174L76.9696 28.7174H78.1296L96.9796 69.3174H95.6456L77.2596 29.6454H77.8396L59.4536 69.3174H58.1196ZM64.3256 57.0794L64.9056 55.9774H90.1356L90.7156 57.0794H64.3256ZM98.2832 69.3174V28.7174H99.2692L118.583 62.4734H118.061L137.317 28.7174H138.303V69.3174H137.143V30.3994H137.607L118.641 63.5754H117.945L98.9212 30.3994H99.4432V69.3174H98.2832ZM163.13 69.3174L149.21 28.7174H150.486L164.058 68.3894H163.42L177.34 28.7174H178.5L192.42 68.3894H191.84L205.412 28.7174H206.63L192.71 69.3174H191.55L177.804 29.9934H178.036L164.29 69.3174H163.13ZM225.396 69.4914C222.419 69.4914 219.654 68.9887 217.102 67.9834C214.589 66.9394 212.385 65.4894 210.49 63.6334C208.634 61.7774 207.184 59.612 206.14 57.1374C205.096 54.6627 204.574 51.956 204.574 49.0174C204.574 46.0787 205.096 43.372 206.14 40.8974C207.184 38.4227 208.634 36.2574 210.49 34.4014C212.385 32.5454 214.589 31.1147 217.102 30.1094C219.654 29.0654 222.419 28.5434 225.396 28.5434C228.373 28.5434 231.119 29.0654 233.632 30.1094C236.184 31.1147 238.388 32.5454 240.244 34.4014C242.139 36.2574 243.608 38.4227 244.652 40.8974C245.696 43.372 246.218 46.0787 246.218 49.0174C246.218 51.956 245.696 54.6627 244.652 57.1374C243.608 59.612 242.139 61.7774 240.244 63.6334C238.388 65.4894 236.184 66.9394 233.632 67.9834C231.119 68.9887 228.373 69.4914 225.396 69.4914ZM225.396 68.3894C228.18 68.3894 230.771 67.906 233.168 66.9394C235.565 65.9727 237.653 64.6194 239.432 62.8794C241.211 61.1007 242.583 59.0514 243.55 56.7314C244.555 54.3727 245.058 51.8014 245.058 49.0174C245.058 46.2334 244.555 43.6814 243.55 41.3614C242.583 39.0027 241.211 36.9534 239.432 35.2134C237.653 33.4347 235.565 32.062 233.168 31.0954C230.771 30.1287 228.18 29.6454 225.396 29.6454C222.612 29.6454 220.021 30.1287 217.624 31.0954C215.227 32.062 213.139 33.4347 211.36 35.2134C209.581 36.9534 208.189 39.0027 207.184 41.3614C206.217 43.6814 205.734 46.2334 205.734 49.0174C205.734 51.8014 206.217 54.3727 207.184 56.7314C208.189 59.0514 209.581 61.1007 211.36 62.8794C213.139 64.6194 215.227 65.9727 217.624 66.9394C220.021 67.906 222.612 68.3894 225.396 68.3894ZM250.39 69.3174V28.7174H264.136C267.462 28.7174 270.304 29.2587 272.662 30.3414C275.06 31.3854 276.896 32.8934 278.172 34.8654C279.448 36.8374 280.086 39.2347 280.086 42.0574C280.086 44.8414 279.448 47.2387 278.172 49.2494C276.896 51.2214 275.06 52.7487 272.662 53.8314C270.304 54.8754 267.462 55.3974 264.136 55.3974H251.028L251.55 54.8754V69.3174H250.39ZM279.216 69.3174L268.602 54.5854H270.052L280.666 69.3174H279.216ZM251.55 54.7594L251.028 54.2954H264.252C269.008 54.2954 272.643 53.232 275.156 51.1054C277.67 48.94 278.926 45.924 278.926 42.0574C278.926 38.152 277.67 35.136 275.156 33.0094C272.643 30.8827 269.008 29.8194 264.252 29.8194H251.028L251.55 29.3554V54.7594ZM285.876 58.7614V57.1954L313.6 28.7174H315.166L296.954 47.4514L296.258 48.0894L285.876 58.7614ZM284.948 69.3174V28.7174H286.108V69.3174H284.948ZM314.934 69.3174L295.62 47.4514L296.49 46.6974L316.5 69.3174H314.934Z" fill="black"/>
<path d="M0.961 14.6666H131.783L111.81 1.42871" stroke="black" stroke-width="2.3361"/>
</svg>
