<svg width="732" height="146" viewBox="0 0 732 146" fill="none" xmlns="http://www.w3.org/2000/svg">
<path d="M0.6 2.99999V1.99999H-0.4V2.99999H0.6ZM0.6 143H-0.4V144H0.6V143ZM33 143V144H34V143H33ZM33 104.4V103.4H32V104.4H33ZM33 78H32V79H33V78ZM33 29.4V28.4H32V29.4H33ZM61.2 1.99999H0.6V3.99999H61.2V1.99999ZM-0.4 2.99999V143H1.6V2.99999H-0.4ZM0.6 144H33V142H0.6V144ZM34 143V104.4H32V143H34ZM33 105.4H61.2V103.4H33V105.4ZM61.2 105.4C80.0631 105.4 95.5121 100.508 106.264 91.569C117.038 82.6126 123 69.6706 123 53.8H121C121 69.1294 115.262 81.4874 104.986 90.031C94.6879 98.5922 79.7369 103.4 61.2 103.4V105.4ZM123 53.8C123 37.8314 117.039 24.8392 106.265 15.8569C95.5128 6.89215 80.063 1.99999 61.2 1.99999V3.99999C79.737 3.99999 94.6872 8.80783 104.985 17.3931C115.261 25.9608 121 38.3686 121 53.8H123ZM59.4 77H33V79H59.4V77ZM34 78V29.4H32V78H34ZM33 30.4H59.4V28.4H33V30.4ZM59.4 30.4C69.1663 30.4 76.3521 32.6215 81.0822 36.591C85.784 40.5368 88.2 46.3286 88.2 53.8H90.2C90.2 45.8714 87.616 39.4632 82.3678 35.059C77.1479 30.6785 69.4337 28.4 59.4 28.4V30.4ZM88.2 53.8C88.2 61.1674 85.7867 66.9096 81.0844 70.8321C76.3535 74.7785 69.1661 77 59.4 77V79C69.4339 79 77.1465 76.7215 82.3656 72.3679C87.6133 67.9904 90.2 61.6326 90.2 53.8H88.2ZM190.884 146.4C235.381 146.4 268.484 115.407 268.484 73H266.484C266.484 114.193 234.388 144.4 190.884 144.4V146.4ZM268.484 73C268.484 30.5934 235.381 -0.400002 190.884 -0.400002V1.6C234.388 1.6 266.484 31.8065 266.484 73H268.484ZM190.884 -0.400002C146.184 -0.400002 113.284 30.7969 113.284 73H115.284C115.284 32.0031 147.184 1.6 190.884 1.6V-0.400002ZM113.284 73C113.284 115.203 146.184 146.4 190.884 146.4V144.4C147.184 144.4 115.284 113.997 115.284 73H113.284ZM190.884 116.8C166.443 116.8 148.084 99.0537 148.084 73H146.084C146.084 100.146 165.326 118.8 190.884 118.8V116.8ZM148.084 73C148.084 46.9463 166.443 29.2 190.884 29.2V27.2C165.326 27.2 146.084 45.8537 146.084 73H148.084ZM190.884 29.2C215.326 29.2 233.684 46.9463 233.684 73H235.684C235.684 45.8537 216.443 27.2 190.884 27.2V29.2ZM233.684 73C233.684 99.0537 215.326 116.8 190.884 116.8V118.8C216.443 118.8 235.684 100.146 235.684 73H233.684ZM357.234 37.6L356.74 38.4691L357.731 39.0334L358.161 37.9766L357.234 37.6ZM367.234 13L368.161 13.3766L368.476 12.6009L367.768 12.1542L367.234 13ZM267.834 104.8L268.423 103.992L267.429 103.267L266.923 104.389L267.834 104.8ZM256.834 129.2L255.923 128.789L255.599 129.508L256.222 129.991L256.834 129.2ZM313.834 146.4C333.993 146.4 349.086 141.36 359.161 133.254C369.253 125.135 374.234 113.996 374.234 102H372.234C372.234 113.404 367.516 123.965 357.908 131.696C348.283 139.44 333.676 144.4 313.834 144.4V146.4ZM374.234 102C374.234 88.8317 368.997 80.02 361.131 73.8745C353.326 67.7759 342.976 64.336 332.782 61.7311C322.489 59.1009 312.469 57.3394 304.894 54.5972C301.127 53.2338 298.096 51.6681 296.015 49.7214C293.969 47.8064 292.834 45.5187 292.834 42.6H290.834C290.834 46.1313 292.244 48.9311 294.649 51.1817C297.02 53.4006 300.348 55.0787 304.213 56.4778C311.9 59.2606 322.23 61.099 332.287 63.6689C342.443 66.264 352.443 69.6241 359.9 75.4505C367.297 81.23 372.234 89.4682 372.234 102H374.234ZM292.834 42.6C292.834 38.5202 294.529 34.834 298.498 32.126C302.515 29.3847 308.936 27.6 318.434 27.6V25.6C308.732 25.6 301.853 27.4153 297.371 30.474C292.839 33.566 290.834 37.8798 290.834 42.6H292.834ZM318.434 27.6C330.642 27.6 343.873 31.1451 356.74 38.4691L357.729 36.7309C344.596 29.2549 331.027 25.6 318.434 25.6V27.6ZM358.161 37.9766L368.161 13.3766L366.308 12.6234L356.308 37.2234L358.161 37.9766ZM367.768 12.1542C354.567 3.82775 336.368 -0.400002 318.634 -0.400002V1.6C336.1 1.6 353.901 5.77223 366.701 13.8458L367.768 12.1542ZM318.634 -0.400002C298.578 -0.400002 283.582 4.58892 273.58 12.6982C263.56 20.8215 258.634 32.0121 258.634 44.2H260.634C260.634 32.5879 265.309 21.9785 274.839 14.2518C284.387 6.51108 298.891 1.6 318.634 1.6V-0.400002ZM258.634 44.2C258.634 57.5136 263.868 66.4247 271.733 72.6438C279.538 78.8159 289.889 82.3004 300.083 84.943C305.182 86.2647 310.302 87.3895 315.047 88.5223C319.812 89.66 324.214 90.8089 327.97 92.1916C331.735 93.5777 334.767 95.1694 336.848 97.1485C338.895 99.0959 340.034 101.426 340.034 104.4H342.034C342.034 100.824 340.63 97.9854 338.226 95.6992C335.855 93.4446 332.527 91.7379 328.661 90.3147C324.786 88.888 320.285 87.7166 315.511 86.5769C310.717 85.4323 305.662 84.3228 300.585 83.007C290.43 80.3746 280.43 76.9715 272.973 71.075C265.576 65.2253 260.634 56.8863 260.634 44.2H258.634ZM340.034 104.4C340.034 108.34 338.276 111.773 334.211 114.273C330.086 116.81 323.549 118.4 314.034 118.4V120.4C323.719 120.4 330.683 118.79 335.258 115.977C339.893 113.127 342.034 109.06 342.034 104.4H340.034ZM314.034 118.4C297.442 118.4 280.049 112.465 268.423 103.992L267.245 105.608C279.219 114.335 297.026 120.4 314.034 120.4V118.4ZM266.923 104.389L255.923 128.789L257.746 129.611L268.746 105.211L266.923 104.389ZM256.222 129.991C268.849 139.766 291.488 146.4 313.834 146.4V144.4C291.781 144.4 269.62 137.834 257.447 128.409L256.222 129.991ZM398.42 143H397.42V144H398.42V143ZM430.82 143V144H431.82V143H430.82ZM430.82 29.4V28.4H429.82V29.4H430.82ZM475.62 29.4V30.4H476.62V29.4H475.62ZM475.62 2.99999H476.62V1.99999H475.62V2.99999ZM353.62 2.99999V1.99999H352.62V2.99999H353.62ZM353.62 29.4H352.62V30.4H353.62V29.4ZM398.42 29.4H399.42V28.4H398.42V29.4ZM398.42 144H430.82V142H398.42V144ZM431.82 143V29.4H429.82V143H431.82ZM430.82 30.4H475.62V28.4H430.82V30.4ZM476.62 29.4V2.99999H474.62V29.4H476.62ZM475.62 1.99999H353.62V3.99999H475.62V1.99999ZM352.62 2.99999V29.4H354.62V2.99999H352.62ZM353.62 30.4H398.42V28.4H353.62V30.4ZM397.42 29.4V143H399.42V29.4H397.42ZM501.253 117H500.253V118H501.253V117ZM501.253 84.6V83.6H500.253V84.6H501.253ZM566.253 84.6V85.6H567.253V84.6H566.253ZM566.253 59.4H567.253V58.4H566.253V59.4ZM501.253 59.4H500.253V60.4H501.253V59.4ZM501.253 29V28H500.253V29H501.253ZM574.853 29V30H575.853V29H574.853ZM574.853 2.99999H575.853V1.99999H574.853V2.99999ZM469.053 2.99999V1.99999H468.053V2.99999H469.053ZM469.053 143H468.053V144H469.053V143ZM577.453 143V144H578.453V143H577.453ZM577.453 117H578.453V116H577.453V117ZM502.253 117V84.6H500.253V117H502.253ZM501.253 85.6H566.253V83.6H501.253V85.6ZM567.253 84.6V59.4H565.253V84.6H567.253ZM566.253 58.4H501.253V60.4H566.253V58.4ZM502.253 59.4V29H500.253V59.4H502.253ZM501.253 30H574.853V28H501.253V30ZM575.853 29V2.99999H573.853V29H575.853ZM574.853 1.99999H469.053V3.99999H574.853V1.99999ZM468.053 2.99999V143H470.053V2.99999H468.053ZM469.053 144H577.453V142H469.053V144ZM578.453 143V117H576.453V143H578.453ZM577.453 116H501.253V118H577.453V116ZM703.233 143V144H705.15L704.053 142.428L703.233 143ZM671.833 98L671.439 97.0809L670.31 97.5648L671.013 98.5722L671.833 98ZM579.233 2.99999V1.99999H578.233V2.99999H579.233ZM579.233 143H578.233V144H579.233V143ZM611.633 143V144H612.633V143H611.633ZM611.633 104V103H610.633V104H611.633ZM641.433 104L642.255 103.431L641.957 103H641.433V104ZM668.433 143L667.611 143.569L667.909 144H668.433V143ZM611.633 78.2H610.633V79.2H611.633V78.2ZM611.633 29.4V28.4H610.633V29.4H611.633ZM704.053 142.428L672.653 97.4278L671.013 98.5722L702.413 143.572L704.053 142.428ZM672.227 98.9191C690.793 90.9623 701.633 75.2019 701.633 53.8H699.633C699.633 74.3981 689.273 89.4377 671.439 97.0809L672.227 98.9191ZM701.633 53.8C701.633 37.8314 695.672 24.8392 684.898 15.8569C674.146 6.89215 658.696 1.99999 639.833 1.99999V3.99999C658.37 3.99999 673.32 8.80783 683.617 17.3931C693.894 25.9608 699.633 38.3686 699.633 53.8H701.633ZM639.833 1.99999H579.233V3.99999H639.833V1.99999ZM578.233 2.99999V143H580.233V2.99999H578.233ZM579.233 144H611.633V142H579.233V144ZM612.633 143V104H610.633V143H612.633ZM611.633 105H639.833V103H611.633V105ZM639.833 105H641.433V103H639.833V105ZM640.611 104.569L667.611 143.569L669.255 142.431L642.255 103.431L640.611 104.569ZM668.433 144H703.233V142H668.433V144ZM666.833 53.8C666.833 61.1683 664.419 66.963 659.713 70.9359C654.981 74.9307 647.794 77.2 638.033 77.2V79.2C648.072 79.2 655.785 76.8693 661.003 72.4641C666.247 68.037 668.833 61.6317 668.833 53.8H666.833ZM638.033 77.2H611.633V79.2H638.033V77.2ZM612.633 78.2V29.4H610.633V78.2H612.633ZM611.633 30.4H638.033V28.4H611.633V30.4ZM638.033 30.4C647.799 30.4 654.985 32.6215 659.715 36.591C664.417 40.5368 666.833 46.3286 666.833 53.8H668.833C668.833 45.8714 666.249 39.4632 661.001 35.059C655.781 30.6785 648.067 28.4 638.033 28.4V30.4ZM711.903 145.6C723.249 145.6 732.303 136.959 732.303 125H730.303C730.303 135.841 722.158 143.6 711.903 143.6V145.6ZM732.303 125C732.303 112.807 723.214 104.8 711.903 104.8V106.8C722.193 106.8 730.303 113.993 730.303 125H732.303ZM711.903 104.8C700.593 104.8 691.503 112.807 691.503 125H693.503C693.503 113.993 701.614 106.8 711.903 106.8V104.8ZM691.503 125C691.503 136.959 700.558 145.6 711.903 145.6V143.6C701.649 143.6 693.503 135.841 693.503 125H691.503Z" fill="black"/>
</svg>
